<?xml version="1.0" standalone="no"?>
  <!DOCTYPE svg PUBLIC "-//W3C//DTD SVG 1.1//EN" "http://www.w3.org/Graphics/SVG/1.1/DTD/svg11.dtd" >
  <svg>
  <metadata>
  Created by font-carrier
  </metadata>
  <defs>
  <font id="OldOakAP" horiz-adv-x="1134" vert-adv-y="1134" >
    <font-face
      
      font-family="OldOakAP"
      
      font-weight="400"
      
      font-stretch="normal"
      
      units-per-em="1000"
      
      ascent="614"
      
      descent="-139"
      
    />
      <missing-glyph />

      

      
      <glyph glyph-name="uni21" unicode="&#x21;" d="M188 561L112 648L36 561C77 440 89 312 101 186L123 186C134 312 147 440 188 561ZM188 66C162 92 136 119 114 148L30 70C50 39 77 13 105-11Z"  horiz-adv-x="231" vert-adv-y="1000"  />

      
      <glyph glyph-name="uni22" unicode="&#x22;" d="M323 651L267 724L200 651L258 418L277 418ZM161 651L105 724L38 651L96 418L115 418Z"  horiz-adv-x="355" vert-adv-y="1000"  />

      
      <glyph glyph-name="uni23" unicode="&#x23;" d="M726 490L579 490L658 712L582 712L503 490L368 490L447 712L371 712L292 490L129 490L104 422L268 422L220 287L68 287L43 219L196 219L118-2L193-2L272 219L408 219L329-2L405-2L484 219L640 219L664 287L508 287L555 422L702 422ZM480 422L433 287L295 287L343 422Z"  horiz-adv-x="769" vert-adv-y="1000"  />

      
      <glyph glyph-name="uni24" unicode="&#x24;" d="M436 244C436 306 410 366 362 406C328 382 291 362 253 344L253 521L356 498L389 575L253 604L253 671L204 671L204 609C94 594 23 517 23 405C23 339 55 273 109 234C140 255 172 274 204 293L204 89L53 125L21 50L204 5L204-104L253-104L253-5C347 45 436 130 436 244ZM204 320C199 318 193 317 187 317C118 317 91 414 91 469C91 498 97 527 114 551L204 532ZM356 206C356 155 343 102 309 63L253 75L253 315C263 319 274 323 285 323C340 323 356 249 356 206Z"  horiz-adv-x="463" vert-adv-y="1000"  />

      
      <glyph glyph-name="uni25" unicode="&#x25;" d="M683 187C683 280 618 330 539 363C465 321 401 256 401 166C401 74 466 15 550-9C618 38 683 97 683 187ZM560 611L506 611L149-9L203-9ZM311 435C311 528 247 578 168 611C95 569 29 504 29 414C29 322 94 263 178 239C246 286 311 345 311 435ZM629 163C629 123 619 83 589 54C510 68 456 130 456 211C456 247 473 280 497 305C567 289 629 240 629 163ZM257 411C257 371 247 331 217 302C138 316 84 378 84 459C84 495 101 527 126 553C196 537 257 488 257 411Z"  horiz-adv-x="711" vert-adv-y="1000"  />

      
      <glyph glyph-name="uni26" unicode="&#x26;" d="M637 268L632 272C626 270 620 269 613 269C584 269 553 286 531 306L414 209L323 371C377 413 440 460 440 535C440 589 408 621 365 648L180 552C158 540 135 525 135 497C135 469 209 358 228 327L42 180L169-16L344 126C378 62 418 0 499 0C570 0 619 46 635 113L627 117C606 96 580 84 551 84C486 84 453 140 426 191L484 236C502 220 524 208 549 208C589 208 617 236 637 268ZM370 484C370 434 345 418 310 390C294 420 243 497 243 527C243 556 267 578 296 578C345 578 370 527 370 484ZM333 148L242 74L142 231L240 307Z"  horiz-adv-x="701" vert-adv-y="1000"  />

      
      <glyph glyph-name="uni27" unicode="&#x27;" d="M130 664C130 692 116 714 86 714C55 714 42 690 42 662C42 656 43 650 44 644L78 420L95 420L128 644C129 651 130 657 130 664Z"  horiz-adv-x="172" vert-adv-y="1000"  />

      
      <glyph glyph-name="uni28" unicode="&#x28;" d="M324 7L309 22L285-5C210 98 166 222 166 350C166 501 219 644 308 765L294 778C167 641 87 460 87 271C87 127 129-21 229-128Z"  horiz-adv-x="331" vert-adv-y="1000"  />

      
      <glyph glyph-name="uni29" unicode="&#x29;" d="M244 379C244 523 202 670 103 778L8 643L23 628L47 655C123 552 165 428 165 300C165 150 112 6 24-115L38-128C165 9 244 190 244 379Z"  horiz-adv-x="331" vert-adv-y="1000"  />

      
      <glyph glyph-name="uni2a" unicode="&#x2a;" d="M356 470L314 534C292 522 267 519 242 519C233 519 224 520 215 520C239 545 269 565 303 572L297 646L223 630C224 595 219 568 203 537C190 562 181 589 181 617C181 622 182 627 182 632L110 650L104 573C137 566 166 548 188 524C176 522 165 520 153 520C132 520 112 525 93 533L55 468L124 440C142 470 170 491 201 506C192 474 181 441 156 418L203 357L253 411C233 437 224 470 216 501C244 486 273 468 289 440Z"  horiz-adv-x="431" vert-adv-y="1000"  />

      
      <glyph glyph-name="uni2b" unicode="&#x2b;" d="M496 382L476 382L460 358L332 358L332 578L316 578L264 530L264 358L136 358L98 260L116 260L132 294L264 294L264 40L332 90L332 292L452 294Z"  horiz-adv-x="640" vert-adv-y="1000"  />

      
      <glyph glyph-name="uni2c" unicode="&#x2c;" d="M183 77C157 99 131 122 109 148L31 74C48 57 76 31 76 6C76-21 50-46 31-62L51-84C111-46 162 7 183 77Z"  horiz-adv-x="231" vert-adv-y="1000"  />

      
      <glyph glyph-name="uni2d" unicode="&#x2d;" d="M282 310L263 310L251 277L67 277L27 167L46 167L56 195L242 195Z"  horiz-adv-x="310" vert-adv-y="1000"  />

      
      <glyph glyph-name="uniad" unicode="&#xad;" d="M282 310L263 310L251 277L67 277L27 167L46 167L56 195L242 195Z"  horiz-adv-x="310" vert-adv-y="1000"  />

      
      <glyph glyph-name="uni2e" unicode="&#x2e;" d="M191 66C165 92 138 118 116 148L33 70C53 39 80 13 108-11Z"  horiz-adv-x="231" vert-adv-y="1000"  />

      
      <glyph glyph-name="uni2f" unicode="&#x2f;" d="M285 648L230 648L-24-93L30-93Z"  horiz-adv-x="309" vert-adv-y="1000"  />

      
      <glyph glyph-name="uni30" unicode="&#x30;" d="M434 317C434 465 358 552 228 611C113 534 29 425 29 282C29 142 111 33 244-9C353 75 434 172 434 317ZM366 275C366 205 353 135 304 81C169 110 100 229 100 361C100 423 125 481 163 529C285 497 366 403 366 275Z"  horiz-adv-x="463" vert-adv-y="1000"  />

      
      <glyph glyph-name="uni31" unicode="&#x31;" d="M284 92L269 106L232 73L194 104L194 481C194 545 169 575 119 611L10 517L23 501L60 533C86 515 100 493 100 460L100 120C100 99 88 86 73 72L176-9Z"  horiz-adv-x="306" vert-adv-y="1000"  />

      
      <glyph glyph-name="uni32" unicode="&#x32;" d="M410 79C366 107 314 116 263 116C195 116 128 100 66 74C167 221 403 230 403 447C403 457 403 468 402 478L190 611L16 470L80 407L247 539C279 511 300 472 300 430C300 255 28 183 2-9C56 15 114 30 173 30C230 30 287 15 339-9Z"  horiz-adv-x="463" vert-adv-y="1000"  />

      
      <glyph glyph-name="uni33" unicode="&#x33;" d="M406 167C406 253 339 298 264 321C329 351 384 398 384 475C384 486 383 497 381 508L181 610L41 504L97 443C120 460 226 545 245 545C273 545 282 512 282 489C282 385 213 336 115 331L115 306C215 317 305 269 305 159C305 110 290 67 256 32L68 192L-1 125L158-9C257-1 406 45 406 167Z"  horiz-adv-x="463" vert-adv-y="1000"  />

      
      <glyph glyph-name="uni34" unicode="&#x34;" d="M439 194L419 268L334 268L334 506C334 556 303 589 261 611L19 278L45 194L245 194L245 118C245 95 224 78 210 62L318-9L412 78L400 94L371 70L334 98L334 194ZM244 268L50 268L47 277L223 515C233 507 244 494 244 481Z"  horiz-adv-x="463" vert-adv-y="1000"  />

      
      <glyph glyph-name="uni35" unicode="&#x35;" d="M407 223C407 323 356 394 262 428L93 313L122 509L346 509L374 597L109 597L57 258L193 350C275 324 340 268 340 176C340 124 314 79 276 44L79 165L19 98L191-9C308 15 407 96 407 223Z"  horiz-adv-x="463" vert-adv-y="1000"  />

      
      <glyph glyph-name="uni36" unicode="&#x36;" d="M431 244C431 324 385 378 314 409L122 277C122 286 121 295 121 304C121 386 140 470 199 530L342 454L404 530L247 611C133 527 34 409 34 261C34 126 114 28 242-9C328 48 431 131 431 244ZM358 187C358 141 338 101 299 75C201 95 146 157 126 253C145 267 224 325 242 325C310 325 358 249 358 187Z"  horiz-adv-x="463" vert-adv-y="1000"  />

      
      <glyph glyph-name="uni37" unicode="&#x37;" d="M409 574L409 597L88 597C65 546 41 496 13 447L28 438C53 467 83 493 118 509L328 509C194 367 90 190 77-8L194 37C203 243 276 417 409 574Z"  horiz-adv-x="391" vert-adv-y="1000"  />

      
      <glyph glyph-name="uni38" unicode="&#x38;" d="M417 222C417 292 371 339 307 360C356 384 397 422 397 480C397 576 266 607 190 611C130 561 46 477 46 394C46 340 78 304 129 290C81 255 30 203 30 139C30 35 136-9 225-9L236-9C319 39 417 117 417 222ZM338 437C338 405 312 383 288 366C229 374 103 371 103 450C103 478 118 503 134 525C189 522 338 515 338 437ZM378 167C378 102 308 83 255 83C190 83 93 110 93 190C93 229 122 262 150 286C215 278 378 255 378 167Z"  horiz-adv-x="463" vert-adv-y="1000"  />

      
      <glyph glyph-name="uni39" unicode="&#x39;" d="M428 348C428 478 343 576 220 611C134 554 31 470 31 357C31 277 77 223 148 192L340 324C340 315 341 306 341 297C341 216 322 132 263 72L120 147L58 71L215-9C335 77 428 193 428 348ZM336 348C314 333 243 277 220 277C152 277 104 353 104 415C104 462 123 501 163 527C261 507 316 444 336 348Z"  horiz-adv-x="463" vert-adv-y="1000"  />

      
      <glyph glyph-name="uni3a" unicode="&#x3a;" d="M191 365C165 391 138 417 116 447L33 369C53 338 80 312 108 288ZM191 66C165 92 138 118 116 148L33 70C53 39 80 13 108-11Z"  horiz-adv-x="255" vert-adv-y="1000"  />

      
      <glyph glyph-name="uni3b" unicode="&#x3b;" d="M202 366C176 392 150 419 128 448L44 370C64 339 91 313 119 289ZM194 77C168 99 143 122 121 148L43 74C60 58 87 31 87 6C87-21 61-46 42-62L62-84C122-46 173 7 194 77Z"  horiz-adv-x="255" vert-adv-y="1000"  />

      
      <glyph glyph-name="uni3c" unicode="&#x3c;" d="M304 361L261 361L34 207L197 58L244 58L127 207Z"  horiz-adv-x="337" vert-adv-y="1000"  />

      
      <glyph glyph-name="uni3d" unicode="&#x3d;" d="M388 313L122 313L71 259L337 259ZM352 201L87 201L35 147L301 147Z"  horiz-adv-x="418" vert-adv-y="1000"  />

      
      <glyph glyph-name="uni3e" unicode="&#x3e;" d="M289 207L133 361L80 361L202 211L21 58L68 58Z"  horiz-adv-x="319" vert-adv-y="1000"  />

      
      <glyph glyph-name="uni3f" unicode="&#x3f;" d="M274 511C274 598 199 648 118 648C102 648 85 647 69 644L12 530C34 539 79 559 102 559C152 559 175 528 175 480C175 394 117 314 117 222C117 209 118 196 119 183L145 183C149 348 274 405 274 511ZM206 66C180 92 153 118 131 148L48 70C68 39 95 13 123-11Z"  horiz-adv-x="347" vert-adv-y="1000"  />

      
      <glyph glyph-name="uni40" unicode="&#x40;" d="M679 357C679 532 574 661 393 661C175 661 27 463 27 256C27 48 174-100 382-100C474-100 559-63 628-2L615 18C549-37 469-73 382-73C204-73 81 67 81 241C81 428 187 634 398 634C559 634 657 517 657 361C657 277 634 193 572 133C559 121 540 102 521 102C485 102 485 144 485 170L485 433C485 455 507 492 518 511L512 517L485 496L381 551C357 522 295 504 258 504C252 504 246 504 240 505L286 376C236 328 193 266 193 194C193 138 222 97 261 59L270 59L394 171C401 120 440 68 495 68C534 68 569 96 594 122C653 183 679 273 679 357ZM394 328L303 378L264 487L394 437ZM394 201L327 138C291 172 274 217 274 266C274 299 284 332 301 360L394 309Z"  horiz-adv-x="708" vert-adv-y="1000"  />

      
      <glyph glyph-name="uni41" unicode="&#x41;" d="M597 79L581 98L548 73C522 95 522 135 521 167C519 280 514 394 514 508C514 572 543 609 590 649L588 653C540 643 504 619 474 580C417 621 356 649 284 649C158 649 34 552 34 420C34 341 85 277 142 227L53 98C36 74 17 45 17 14C17-2 26-15 43-15C57-15 68-5 68 9C68 22 57 33 57 46C57 61 68 75 84 75C114 75 230 2 265-17L410 95C417 49 442 6 483-18ZM408 278L212 278L381 521L386 521L404 494ZM358 542L334 507C314 513 294 517 273 517C214 517 166 476 166 415L166 409C182 443 205 460 243 460C260 460 277 453 286 438L155 247C108 282 69 335 69 396C69 498 156 567 254 567C290 567 325 557 358 542ZM410 130L329 65L128 156L164 207L409 207Z"  horiz-adv-x="602" vert-adv-y="1000"  />

      
      <glyph glyph-name="uni42" unicode="&#x42;" d="M666 94L666 275C666 358 608 378 536 385C582 427 648 489 648 555C648 606 605 663 550 663C526 663 496 654 472 647C356 614 304 557 304 434C304 279 334 154 177 63C241 135 254 195 254 289L254 443C254 550 293 604 386 653L384 657C351 647 316 636 282 636C234 636 190 663 142 663C76 663 27 607 16 545L19 544C33 567 52 588 81 588C116 588 146 563 181 563C202 563 222 568 241 575C177 529 147 468 143 390C87 389 30 360 21 300C42 311 66 320 90 320C131 320 161 293 161 251C161 246 161 242 160 237C119 227 77 208 77 159C77 150 78 141 81 132C95 150 113 168 137 168C154 168 162 152 162 137C162 64 41 7 41-78C41-94 51-114 70-114C85-114 93-101 93-87C93-70 83-54 83-37C83 17 176 29 216 29C286 29 349 12 413-16C490 36 574 78 666 94ZM555 281C539 275 523 271 506 271C488 271 471 275 454 280L454 327C471 340 488 352 507 363C524 357 555 337 555 317ZM547 499C547 438 506 385 454 357L454 461L434 461L434 104C408 112 382 117 355 117C323 117 292 111 261 105C366 158 397 203 397 322L397 516C397 567 422 596 471 608C511 585 547 548 547 499ZM555 187C538 191 521 194 504 194C487 194 470 192 454 187L454 259C471 255 488 252 506 252C523 252 539 255 555 259ZM555 101C539 93 521 87 505 78L454 96L454 167C470 172 487 175 504 175C521 175 539 173 555 166Z"  horiz-adv-x="715" vert-adv-y="1000"  />

      
      <glyph glyph-name="uni43" unicode="&#x43;" d="M586 162L579 166C524 115 461 76 383 76C369 76 355 77 341 79L341 545C387 530 433 514 477 494L566 591C496 591 429 613 369 648L174 484L174 238C174 217 174 196 162 178C120 228 106 292 106 355C106 453 148 523 225 582L223 586C93 539 20 416 20 281C20 110 141-16 313-16C446-16 529 44 586 162ZM318 83C265 94 215 121 178 162C238 211 277 259 277 341L277 527L318 561Z"  horiz-adv-x="590" vert-adv-y="1000"  />

      
      <glyph glyph-name="uni44" unicode="&#x44;" d="M706 182C706 289 696 460 627 546C569 618 496 625 410 625C356 625 303 622 249 618C209 615 168 609 128 609C87 609 40 626 28 670L22 669C21 661 21 653 21 645C21 563 73 512 155 512C200 512 246 516 291 517C204 467 149 393 144 291C134 293 124 294 114 294C56 294 5 262 0 200C15 219 37 234 62 234C106 234 127 195 127 155C127 92 71 39 27 1L34-7C162 83 256 132 256 305C256 391 233 486 337 519C320 488 316 452 316 418L316 255C316 176 274 127 213 83C153 40 88 4 27-38L36-51C117-5 207 32 301 32C383 32 466 15 543-13C589 32 642 71 703 93C705 123 706 152 706 182ZM582 369C558 342 529 331 494 331C460 331 431 343 408 369L408 522C517 522 573 481 582 369ZM593 217C567 235 536 244 505 244C471 244 438 232 408 215L408 337C433 318 465 310 496 310C529 310 560 319 586 340C591 306 593 271 593 237ZM385 132C371 134 358 135 344 135C329 135 314 134 299 132C336 172 341 229 341 281C341 323 337 364 337 406C337 445 340 490 364 522L385 522ZM594 164C594 142 593 120 592 98C532 115 470 127 408 131L408 185C433 209 467 223 502 223C537 223 569 211 594 185Z"  horiz-adv-x="755" vert-adv-y="1000"  />

      
      <glyph glyph-name="uni45" unicode="&#x45;" d="M586 162L579 166C523 114 460 76 382 76C369 76 355 77 342 79L343 346L499 345C515 380 533 414 549 449L444 449L580 598C507 591 428 607 366 648L174 484L174 238C174 217 174 196 162 178C122 227 104 291 104 354C104 450 151 525 225 582L223 586C93 539 20 416 20 281C20 110 141-16 313-16C446-16 529 44 586 162ZM455 497L342 373L342 542ZM319 83C265 94 215 121 178 162C238 211 277 259 277 341L277 527L319 561Z"  horiz-adv-x="590" vert-adv-y="1000"  />

      
      <glyph glyph-name="uni46" unicode="&#x46;" d="M677 642L673 645C641 631 607 622 572 622C531 622 490 633 454 652C386 594 306 542 213 542C206 542 199 542 192 543L192 447L160 447C76 447 10 395 3 309L11 309C36 344 67 356 109 356L192 356L192 72C192 42 183-62 141-62C113-62 56 4-5 4C-83 4-114-63-114-132L-114-140L-106-140C-99-113-86-91-55-91C-19-91 19-122 64-122C104-122 192-88 234-75C401-22 440 52 440 220C440 265 438 311 438 356L548 356L579 447L438 447L438 542C468 527 501 518 534 518C613 518 663 566 677 642ZM343 174C343 59 301-20 187-55C274 12 287 98 287 201L287 519C306 521 326 526 343 535Z"  horiz-adv-x="644" vert-adv-y="1000"  />

      
      <glyph glyph-name="uni47" unicode="&#x47;" d="M640 277C640 390 569 451 466 478L609 592L606 597C585 594 565 592 544 592C480 592 419 614 365 647C218 543 22 436 22 230C22 88 126-16 268-16C430-16 640 96 640 277ZM446 495L286 366L286 559ZM553 270C523 250 488 236 452 236C417 236 383 248 352 265L352 364C373 372 396 377 419 377C484 377 543 337 553 270ZM559 226C559 201 554 176 543 153C515 169 483 176 451 176C417 176 384 168 352 156L352 240C383 226 417 216 452 216C489 216 525 231 558 247C559 240 559 233 559 226ZM536 132C494 68 428 32 352 32L352 133C384 145 417 155 451 155C481 155 510 146 536 132ZM184 188C184 173 183 153 169 144C134 189 123 248 123 304C123 364 137 430 184 472ZM328 33C269 40 220 78 182 122C291 215 286 186 286 334C299 342 313 349 328 353Z"  horiz-adv-x="669" vert-adv-y="1000"  />

      
      <glyph glyph-name="uni48" unicode="&#x48;" d="M680 285C680 392 654 470 563 533L402 401L402 503C402 583 454 624 519 659L517 661C344 627 303 558 303 390C303 242 326 147 177 63C362 271 123 526 386 653L384 657C352 648 316 636 283 636C234 636 191 663 142 663C76 663 27 607 16 545L19 544C33 567 52 588 81 588C116 588 146 563 181 563C202 563 222 568 241 575C179 524 145 472 143 390C87 389 30 360 21 300C42 311 66 320 90 320C131 320 161 293 161 251C161 246 161 242 160 237C119 227 77 208 77 159C77 150 78 141 81 132C95 150 113 168 137 168C154 168 162 152 162 137C162 65 41 7 41-78C41-94 51-114 70-114C85-114 93-101 93-87C93-70 83-54 83-37C83 17 176 29 216 29C283 29 355 15 413-20L504 121L490 135C472 113 447 99 418 99C382 99 347 108 311 108C298 108 285 108 272 106C328 160 406 212 486 212C514 212 541 205 566 194C554 65 435-14 435-80C435-110 459-136 489-136C505-136 531-127 531-107C531-66 471-101 471-70C471-27 625 50 660 142C677 187 680 237 680 285ZM566 348C542 338 515 331 489 331C459 331 430 339 402 347L402 374L496 453C539 432 560 394 566 348ZM567 216C539 226 510 233 481 233C454 233 428 226 402 219L402 325C429 319 457 312 485 312C513 312 541 317 567 326Z"  horiz-adv-x="722" vert-adv-y="1000"  />

      
      <glyph glyph-name="uni49" unicode="&#x49;" d="M442 639L442 648C325 645 292 558 292 455C292 336 327 221 327 102C327 62 317 28 270 28C229 28 185 67 158 96C232 97 264 129 264 203C264 288 241 371 241 456C241 530 259 598 322 644L318 651C291 644 264 637 236 637C199 637 163 649 126 649C61 649 19 602 5 542L13 541C25 565 43 586 71 586C101 586 130 574 160 574C188 574 215 585 239 597C181 540 156 474 151 394C92 394 39 369 26 307C48 316 73 324 97 324C174 324 183 258 183 196C183 147 177 114 119 114C108 114 97 116 86 116C16 116-29 51-29-14L-29-16L-23-18C-7 13 16 35 52 35C119 35 179-16 250-16C371-16 417 102 417 206C417 325 380 440 380 559C380 607 394 627 442 639Z"  horiz-adv-x="477" vert-adv-y="1000"  />

      
      <glyph glyph-name="uni4a" unicode="&#x4a;" d="M530 630L528 647C485 630 438 613 391 613C315 613 245 650 169 650C96 650 7 601 7 519C7 486 29 451 65 451C88 451 107 466 107 490C107 515 95 527 70 527C59 527 49 520 38 520C31 520 30 532 30 537C30 565 62 574 85 574C145 574 197 535 257 535C299 535 340 550 378 567C300 519 221 458 217 359C197 369 174 374 151 374C122 374 94 363 77 338C150 338 206 301 208 223C186 234 162 241 137 241C111 241 85 232 67 212C160 199 245 143 245 40C245 2 234-26 191-26C153-26 118-7 80-7C2-7-34-61-48-131L-41-135C-28-112-11-85 19-85C65-85 107-119 157-119C224-119 290-68 336-23C413 52 444 129 444 236C444 290 441 345 441 399C441 498 448 564 530 630ZM457 593C376 520 349 452 349 343L349 160C349 45 326-47 197-67C291-32 298 56 298 143L298 369C298 481 361 546 457 593Z"  horiz-adv-x="507" vert-adv-y="1000"  />

      
      <glyph glyph-name="uni4b" unicode="&#x4b;" d="M673 95L658 109L633 84C581 163 530 278 440 320C493 364 544 409 602 446L497 563C448 514 396 466 338 428C338 511 357 580 398 652L377 652C338 588 317 514 317 439L317 260C317 191 286 130 225 96C194 79 160 67 129 50L122 56C160 90 202 121 237 159C264 188 272 226 272 265L272 463C272 526 293 587 325 641L324 652C298 642 270 632 242 632C204 632 169 648 131 648C52 648 12 588 6 515L12 513C35 552 62 566 107 566C125 566 144 561 162 561C206 561 246 582 281 606C210 556 171 491 170 404C154 414 135 420 116 420C74 420 45 395 35 355C52 360 72 367 90 367C152 367 177 309 177 255L177 247C160 256 140 265 120 265C83 265 61 242 56 206C67 211 83 219 95 219C126 219 141 188 141 161C141 103 71 40 33 1L44-19C93-1 166 25 218 25C272 25 338 2 388-18L493 102C516 60 541 18 574-16ZM492 391L350 275L338 275L338 403C368 423 397 445 426 467ZM480 127L437 79C393 101 345 111 296 111C288 111 279 111 271 110C314 145 334 190 338 244C342 244 345 245 349 245C412 245 453 175 480 127Z"  horiz-adv-x="681" vert-adv-y="1000"  />

      
      <glyph glyph-name="uni4c" unicode="&#x4c;" d="M584 79L567 93C560 87 547 72 537 72C530 72 453 127 386 127C338 127 286 111 241 97C350 174 392 253 392 387C392 438 384 489 384 540C384 601 415 628 474 634L473 647C352 647 297 605 297 480C297 425 306 370 306 315C306 198 261 126 168 59C224 134 253 203 253 298C253 360 243 421 243 483C243 550 273 598 325 638L320 646C294 634 267 624 238 624C194 624 154 649 110 649C43 649 5 604-8 542L3 536C16 558 35 578 62 578C95 578 124 560 157 560C187 560 215 573 240 589C192 541 159 482 159 413C159 397 161 381 164 366C153 369 142 372 131 372C99 372 70 356 58 325C68 327 79 328 89 328C135 328 169 306 169 257C169 253 168 250 168 246C157 249 145 253 133 253C114 253 97 245 84 231C134 224 169 207 169 151C169 89 106 33 61-3L68-16C135 18 209 43 285 43C357 43 419 18 473-28Z"  horiz-adv-x="581" vert-adv-y="1000"  />

      
      <glyph glyph-name="uni4d" unicode="&#x4d;" d="M841 74L825 89C820 84 811 73 803 73C784 73 781 113 781 126L781 511C781 545 800 572 821 597L807 608L768 579L665 649L501 542C498 594 466 628 423 652L246 554C155 504 130 430 126 331C67 326 28 300 18 239C37 245 58 250 78 250C142 250 183 183 183 125C183-21-30 100-30-87L-21-87C-6-56 18-44 51-44C87-44 120-58 156-58C245-58 290 26 290 106L290 290L397 290L397 129C397 112 383 99 371 89L371 81C408 53 443 22 472-14L625 122L610 138L588 119L588 290L641 364L588 364L588 569L606 579L675 527L675 109C675 53 694 6 750-15ZM565 364L501 364L501 510L565 552ZM397 364L327 364L290 310L290 472C290 513 308 548 337 575C362 574 397 565 397 534ZM565 101L534 75C506 85 501 95 501 124L501 290L565 290ZM285 546C274 525 267 503 267 479L267 112C267 71 251 36 205 36C193 36 182 39 171 42C218 65 228 115 228 163L228 427C228 478 240 517 285 546Z"  horiz-adv-x="866" vert-adv-y="1000"  />

      
      <glyph glyph-name="uni4e" unicode="&#x4e;" d="M701 103L681 115L664 91C636 98 606 103 577 103C553 103 529 98 506 91C582 182 658 296 658 420C658 546 547 614 440 648L200 501L200 420C178 429 153 437 129 437C101 437 78 427 61 404C133 404 187 374 200 299C177 310 153 320 127 320C97 320 74 308 60 281C70 283 80 284 90 284C148 284 185 251 199 196C185 200 171 202 156 202C125 202 99 190 83 162C93 163 103 164 113 164C169 164 230 142 230 76C230 34 199 18 161 18C131 18 101 26 71 26C14 26-24-8-53-54L-51-59C-31-49-9-42 14-42C67-42 115-74 169-74C280-74 353 26 353 131L353 238C381 258 413 272 448 272C478 272 505 256 528 237C494 152 421 23 410-63L420-71C446-24 488 1 541 1C572 1 603-7 633-16ZM545 420C521 394 488 378 453 378C416 378 382 396 353 418L353 547C435 540 517 504 545 420ZM555 360C555 326 547 292 534 261C509 280 479 293 447 293C413 293 381 280 353 262L353 392C382 371 417 357 453 357C489 357 524 371 551 396C554 384 555 372 555 360ZM329 150C329 89 313 8 236 8C231 8 226 8 221 9C284 37 292 111 292 172L292 525L329 545Z"  horiz-adv-x="711" vert-adv-y="1000"  />

      
      <glyph glyph-name="uni4f" unicode="&#x4f;" d="M678 372C678 540 519 633 369 650C267 577 164 506 57 442C36 386 21 326 21 266C21 119 117-16 273-16C441-16 678 201 678 372ZM543 439C519 408 486 394 447 394C409 394 374 412 346 437L346 549C423 538 502 510 543 439ZM581 326C581 302 576 278 566 256C534 288 496 306 450 306C412 306 377 290 346 268L346 406C376 388 409 374 444 374C485 374 524 389 554 418C573 391 581 359 581 326ZM555 229C515 147 440 78 346 72L346 237C373 262 408 286 446 286C492 286 529 267 555 229ZM321 72C268 74 221 104 183 140C232 186 283 234 283 307L283 550L321 550ZM194 248C194 216 188 185 167 160C131 204 113 261 113 317C113 389 139 455 194 503Z"  horiz-adv-x="700" vert-adv-y="1000"  />

      
      <glyph glyph-name="uni50" unicode="&#x50;" d="M634 106L634 381C634 526 575 571 461 649L355 575L355 648L332 648L332 558L286 530C282 600 234 648 163 648C117 648 73 625 39 595L39 581C62 587 85 592 109 592C155 592 184 563 184 517L184 453L22 341L22 337C104 294 172 229 182 133C112 111 42 74 2 10L9-2C60 20 115 39 171 39L184 39L184-139C241-137 298-137 355-139L355 27C400 23 447 2 488-16ZM523 401C503 378 471 369 441 369C411 369 375 378 355 402L355 549L372 558C460 555 517 485 523 401ZM523 248C498 262 469 273 440 273C410 273 380 265 355 248L355 371C380 354 410 348 440 348C469 348 498 356 523 372ZM523 90C470 115 413 130 355 141L355 227C379 244 408 252 437 252C469 252 499 241 523 220ZM332-111L290-111L290 507L332 535ZM184 317L110 378L184 428Z"  horiz-adv-x="681" vert-adv-y="1000"  />

      
      <glyph glyph-name="uni51" unicode="&#x51;" d="M708 43L691 60C685 55 677 47 669 47C657 47 574 121 559 134C623 197 678 279 678 372C678 540 519 633 369 650C267 577 164 506 57 442C36 386 21 326 21 266C21 119 117-16 273-16C345-16 420 25 478 64L610-47ZM543 439C519 408 486 394 447 394C409 394 374 412 346 437L346 549C423 538 502 510 543 439ZM581 326C581 302 576 278 566 256C534 288 496 306 450 306C412 306 377 290 346 268L346 406C376 388 409 374 444 374C485 374 524 389 554 418C573 391 581 359 581 326ZM555 229C515 147 440 78 346 72L346 237C373 262 408 286 446 286C492 286 529 267 555 229ZM321 72C268 74 221 104 183 140C232 186 283 234 283 307L283 550L321 550ZM194 248C194 216 188 185 167 160C131 204 113 261 113 317C113 389 139 455 194 503Z"  horiz-adv-x="727" vert-adv-y="1000"  />

      
      <glyph glyph-name="uni52" unicode="&#x52;" d="M702 74L688 90L666 71C599 125 627 281 466 368L602 465C556 527 512 592 463 652L290 533C284 603 242 648 170 648C123 648 79 626 44 595L44 581C66 587 90 592 113 592C159 592 188 563 188 517L188 460L28 343L28 337C116 297 181 232 191 132C117 111 55 68 9 6L13-2C74 24 140 42 207 42C275 42 328 16 382-22L485 84L470 99L449 78C421 96 391 110 360 122L360 290C518 290 494 57 597-16L610-16ZM500 420L360 317L360 555L388 575ZM337 127C323 131 309 133 295 133L295 509L337 539ZM188 325L117 380L188 432Z"  horiz-adv-x="706" vert-adv-y="1000"  />

      
      <glyph glyph-name="uni53" unicode="&#x53;" d="M697 257C697 393 575 447 456 447C442 447 429 446 415 445L510 616L488 628L467 588C402 605 340 630 278 654L186 572C144 534 114 492 114 433C72 416 35 387 35 338C35 229 172 207 256 207L232 161C204 165 176 169 148 169C86 169 4 140 4 66C4 4 66-25 120-25C188-25 265 7 326 35C367 18 408 2 448-17C552 37 697 123 697 257ZM418 501L385 443C349 439 313 433 276 433C237 433 180 445 180 495C180 541 220 562 261 562C316 562 374 532 418 501ZM628 227C628 160 588 109 537 69C509 79 482 90 454 100C501 124 576 164 576 225C576 293 498 308 445 308C409 308 373 303 337 299L365 353C394 357 424 360 454 360C542 360 628 329 628 227ZM333 349L303 297C280 294 256 293 233 293C186 293 97 307 97 369C97 387 109 403 122 414C145 361 203 345 256 345C282 345 307 347 333 349ZM486 187C486 158 441 127 419 113C366 130 313 147 259 157L286 208C332 212 378 218 425 218C448 218 486 219 486 187ZM288 47C241 22 180-3 126-3C95-3 42 6 42 46C42 82 80 91 109 91C168 91 234 69 288 47Z"  horiz-adv-x="727" vert-adv-y="1000"  />

      
      <glyph glyph-name="uni54" unicode="&#x54;" d="M628 651L620 653C603 620 580 601 542 601C443 601 349 648 249 648C124 648 30 591 11 461L20 461C56 519 103 553 174 553C192 553 210 551 227 548C130 480 56 385 56 262C56 90 192-16 357-16C501-16 593 70 625 207L615 211C576 146 525 97 449 79L449 512C546 502 621 548 628 651ZM426 75C418 74 410 74 402 74C350 74 295 87 255 122C326 181 364 229 364 325L364 526L426 513ZM264 216C264 184 259 158 233 137C179 186 155 247 155 319C155 410 187 480 252 544L264 542Z"  horiz-adv-x="639" vert-adv-y="1000"  />

      
      <glyph glyph-name="uni55" unicode="&#x55;" d="M731 75L718 91L688 63C671 80 669 105 669 128L669 521C669 558 688 593 710 621L702 628L653 587L562 648L462 531L479 518L512 557L554 528L554 409C533 396 508 389 483 389C457 389 431 397 408 409L408 648L385 648C364 629 338 624 311 624C256 624 205 648 150 648C51 648 12 559 12 472L12 469L23 470C48 536 84 567 156 567C176 567 196 563 216 563C247 563 277 570 306 579C173 512 59 400 59 242C59 96 164-16 312-16C412-16 489 39 555 108C560 58 584 17 622-16L640-16ZM554 284C531 296 507 303 481 303C455 303 431 296 408 284L408 387C431 375 455 368 481 368C506 368 532 375 554 387ZM554 138C511 108 461 87 408 84L408 262C432 275 459 282 486 282C510 282 533 274 554 262ZM385 82C331 82 278 89 236 126C311 178 348 222 348 317L348 520C348 556 359 589 385 615ZM337 575C286 528 255 473 255 403L255 244C255 207 249 168 221 141C182 185 165 240 165 298C165 420 229 519 337 575Z"  horiz-adv-x="759" vert-adv-y="1000"  />

      
      <glyph glyph-name="uni56" unicode="&#x56;" d="M584 427C584 508 562 589 516 656L260 522C240 589 196 652 119 652C51 652 15 596 5 535L12 533C26 550 44 570 68 570C163 570 182 386 185 317C168 330 148 340 126 340C86 340 57 314 56 273C125 282 174 247 174 175C174 124 145 52 126 4L145-8C174 6 207 18 240 18C273 18 308-1 336-16C449 104 584 252 584 427ZM473 410C441 396 407 387 372 387C341 387 311 393 282 402C280 435 275 467 267 499L420 581C454 530 469 470 473 410ZM475 387C475 338 468 289 451 243C415 260 376 267 337 267C313 267 288 264 265 257C276 297 281 339 282 380C311 373 341 366 371 366C407 366 442 373 475 387ZM445 222C430 173 404 128 376 85C355 93 333 100 311 100C263 100 216 71 178 43L169 45C203 102 243 169 258 233C285 242 313 247 342 247C378 247 413 237 445 222Z"  horiz-adv-x="618" vert-adv-y="1000"  />

      
      <glyph glyph-name="uni57" unicode="&#x57;" d="M1067 75L1052 93L1017 64C1001 81 999 105 999 127L999 513C999 550 1020 585 1044 612L1035 620L972 580L900 649L802 547L822 532L851 561L883 528L883 402C865 395 845 389 825 389C805 389 786 395 768 402L768 649L742 649C732 623 707 615 682 615C634 615 593 650 544 650C462 650 429 575 418 505L432 500C450 550 492 569 542 569C561 569 581 565 600 565C620 565 640 568 660 573C528 502 442 392 442 238C442 203 448 169 460 136C443 114 422 94 398 80L398 649L373 649C353 621 325 611 292 611C238 611 192 648 139 648C45 648 12 560 10 480L25 477C46 535 76 564 140 564C160 564 179 559 199 559C225 559 250 565 274 574C140 505 52 387 52 233C52 105 132-16 270-16C361-16 423 41 471 113C507 34 573-16 661-16C752-16 827 44 886 107C890 51 917 9 968-16ZM883 278C864 284 845 289 825 289C805 289 786 284 768 278L768 379C785 372 804 368 823 368C843 368 864 373 883 379ZM745 75C687 75 640 84 595 124C677 168 706 222 706 314L706 519C706 554 712 587 745 606ZM883 137C848 112 810 90 768 80L768 255C787 262 807 267 828 267C847 267 865 261 883 255ZM686 567C630 509 615 441 615 363C615 328 618 293 618 258C618 216 613 171 581 140C547 184 534 240 534 295C534 408 584 512 686 567ZM373 75C365 74 357 74 349 74C299 74 251 88 214 123C295 169 324 222 324 314L324 512C324 554 335 584 373 606ZM304 567C259 519 229 462 229 396L229 243C229 207 225 166 198 140C158 183 142 236 142 293C142 409 192 520 304 567Z"  horiz-adv-x="1074" vert-adv-y="1000"  />

      
      <glyph glyph-name="uni58" unicode="&#x58;" d="M499 518C458 537 420 561 382 585L284 366L215 507C194 550 172 583 119 583C61 583 24 548 0 498L5 492C22 503 43 517 64 517C94 517 119 492 132 467L198 337L101 337L73 270L225 270L225 255L155 98L49 141L12 55C56 40 96 16 131-14L244 239L320 79C338 42 360-2 403-14L487 69L472 85L445 59C430 69 418 82 410 98L328 270L428 270L457 337L301 337L301 346L363 481L463 439Z"  horiz-adv-x="529" vert-adv-y="1000"  />

      
      <glyph glyph-name="uni59" unicode="&#x59;" d="M623 395C623 508 573 625 443 625C380 625 315 585 265 551C249 611 201 647 139 647C111 647 83 639 58 625L58 617C126 617 161 598 161 525L161 441C142 448 121 454 100 454C85 454 70 452 56 448L56 441C118 418 162 379 162 309C162 304 161 298 161 293C137 305 111 314 84 314C74 314 63 314 53 312L53 305C111 277 161 231 161 162L161 123C82 121 13 82 13-5C13-85 77-141 155-141C249-141 360-43 403-43C414-43 420-48 420-59C420-67 404-84 404-101C404-124 420-140 443-140C468-140 484-121 484-97C484-38 429-12 377-12C284-12 204-84 128-84C77-84 37-53 37 0C37 82 116 100 183 100L353 100C540 100 623 218 623 395ZM500 441C475 420 444 405 411 405C381 405 353 418 330 437L330 558C348 566 367 572 387 572C460 572 490 503 500 441ZM509 355C509 331 506 306 502 282C477 300 447 314 415 314C384 314 356 306 330 288L330 410C355 394 383 384 413 384C447 384 478 399 504 419C507 398 509 376 509 355ZM497 259C483 191 440 122 363 122L330 122L330 263C354 283 381 293 413 293C444 293 473 279 497 259ZM307 122L263 122L263 527L307 547Z"  horiz-adv-x="674" vert-adv-y="1000"  />

      
      <glyph glyph-name="uni5a" unicode="&#x5a;" d="M512 106L494 120L460 83C417 107 367 119 318 119C227 119 140 85 59 46C141 116 227 187 289 277L419 277L434 310L310 310C322 324 332 340 341 356L456 356L471 389L359 389C401 472 439 560 498 633L493 640C431 618 366 602 300 602C238 602 178 622 122 648C91 609 58 571 25 534L43 520L74 551C117 534 162 526 208 526C291 526 370 557 440 599C365 534 290 469 231 389L100 389L85 356L208 356C197 342 187 326 178 310L63 310L48 277L161 277C107 181 55 83-18-1L-11-9C58 18 131 40 206 40C279 40 348 15 413-16C445 26 478 66 512 106Z"  horiz-adv-x="542" vert-adv-y="1000"  />

      
      <glyph glyph-name="uni5b" unicode="&#x5b;" d="M253-7L235-8C218-30 215-27 201-40C181-34 168-30 147-30C120-30 92-36 69-52C91-25 135 37 135 72L135 488C135 523 91 585 69 612C91 595 120 590 147 590C168 590 181 594 201 600C215 587 218 590 235 568L253 565C238 606 213 651 164 651C136 651 111 639 82 639C55 639 29 644 3 651C34 615 63 527 63 480C63 418 46 351 46 281C46 215 63 150 63 83C63 35 36-54 3-91C29-84 55-79 82-79C111-79 136-91 164-91C213-91 237-48 253-7Z"  horiz-adv-x="273" vert-adv-y="1000"  />

      
      <glyph glyph-name="uni5c" unicode="&#x5c;" d="M309-93L55 648L0 648L255-93Z"  horiz-adv-x="309" vert-adv-y="1000"  />

      
      <glyph glyph-name="uni5d" unicode="&#x5d;" d="M270-91C237-54 209 33 209 82C209 149 227 214 227 281C227 317 224 354 219 390C215 420 209 450 209 481C209 528 239 615 270 651C244 644 218 639 191 639C162 639 137 651 109 651C60 651 35 606 20 565L37 568C55 591 59 587 72 600C91 594 105 590 125 590C153 590 181 595 204 612C182 585 138 523 138 488L138 72C138 37 182-25 204-52C181-36 153-30 125-30C105-30 91-34 72-40C59-27 55-31 37-8L20-7C36-48 60-91 109-91C137-91 162-79 191-79C218-79 244-84 270-91Z"  horiz-adv-x="273" vert-adv-y="1000"  />

      
      <glyph glyph-name="uni5e" unicode="&#x5e;" d="M797 438L547 714L452 714L201 438L248 438L499 643L749 438Z"  horiz-adv-x="1000" vert-adv-y="1000"  />

      
      <glyph glyph-name="uni5f" unicode="&#x5f;" d="M500-236L500-166L0-166L0-236Z"  horiz-adv-x="500" vert-adv-y="1000"  />

      
      <glyph glyph-name="uni60" unicode="&#x60;" d="M150 439C135 454 108 479 108 501C108 528 130 548 150 564L130 585C74 549 28 501 10 436C34 416 57 396 78 373Z"  horiz-adv-x="194" vert-adv-y="1000"  />

      
      <glyph glyph-name="uni61" unicode="&#x61;" d="M366 68L352 83L334 70C324 75 311 88 311 100L311 363C311 385 333 422 344 441L338 447L311 426L177 475C155 446 119 434 84 434C78 434 72 434 66 435L112 306C62 258 19 196 19 124C19 67 49 27 87-11L96-11L220 101C220 51 234 15 279-11ZM220 262L134 308L95 417L220 367ZM220 131L153 68C117 102 100 147 100 196C100 229 110 262 127 290L220 239Z"  horiz-adv-x="375" vert-adv-y="1000"  />

      
      <glyph glyph-name="uni62" unicode="&#x62;" d="M341 64L341 350C341 398 317 445 278 473L146 365L146 543C146 579 162 611 191 632L189 637C150 634 119 616 95 585L86 585C69 602 46 613 23 619L20 614C38 596 54 573 54 547L54 456L6 456L6 403L54 403L54 156C54 128 50 100 26 81C93 68 154 32 206-11C244 26 291 50 341 64ZM250 77L146 128L146 334L218 393C232 384 250 366 250 348Z"  horiz-adv-x="391" vert-adv-y="1000"  />

      
      <glyph glyph-name="uni63" unicode="&#x63;" d="M273 85L260 101L218 69L141 110L141 394L222 340L266 406L166 475C133 440 93 412 49 393L49 133C49 105 45 77 21 58C72 50 118 24 156-11C194 22 233 55 273 85Z"  horiz-adv-x="282" vert-adv-y="1000"  />

      
      <glyph glyph-name="uni64" unicode="&#x64;" d="M344 444L341 447C324 443 311 429 303 414L16 614L16 510L130 429C105 412 78 401 49 394L49 150C49 119 47 91 21 70C84 56 143 28 194-12C234 25 283 50 335 66L335 402C335 416 336 432 344 444ZM244 73C210 86 176 99 142 114L142 387L169 405L244 351Z"  horiz-adv-x="385" vert-adv-y="1000"  />

      
      <glyph glyph-name="uni65" unicode="&#x65;" d="M305 338L180 475C139 444 97 413 49 393L49 122C49 94 45 66 21 47C69 37 116 18 156-11C200 26 245 62 292 94L278 111L216 68L141 103L141 205C194 251 249 296 305 338ZM225 306L136 233L136 402Z"  horiz-adv-x="308" vert-adv-y="1000"  />

      
      <glyph glyph-name="uni66" unicode="&#x66;" d="M281 85L268 101L234 70L169 115L169 403L232 403L241 456L169 456L169 557L250 537L270 612L176 635C146 607 113 582 77 561L77 456L31 456L23 403L77 403L77 145C77 115 70 89 45 70C96 52 146 27 184-11C216 22 248 54 281 85Z"  horiz-adv-x="287" vert-adv-y="1000"  />

      
      <glyph glyph-name="uni67" unicode="&#x67;" d="M412 348L412 453L340 403L198 475C157 452 95 415 50 408L50 73L139 5L36-119L59-139C95-125 133-118 172-118C212-118 251-126 289-139L375-87C392-76 406-63 406-41C406 4 339 51 339 121L339 360ZM251 137L196 74L138 116L138 400L251 363ZM345-75C299-58 251-46 202-46C174-46 146-50 119-55L249 99C253 33 300-21 345-65Z"  horiz-adv-x="421" vert-adv-y="1000"  />

      
      <glyph glyph-name="uni68" unicode="&#x68;" d="M341 104L341 350C341 398 317 445 278 473L146 365L146 543C146 579 162 611 191 632L189 637C151 634 118 615 95 585L86 585C69 602 46 613 23 619L20 614C41 595 54 575 54 546L54 456L6 456L6 403L54 403L54 88L23 54L98-12L173 59L146 88L146 336L218 394C232 385 250 367 250 349L250 67C250-38 170-70 86-103L88-114C200-90 341-31 341 104Z"  horiz-adv-x="391" vert-adv-y="1000"  />

      
      <glyph glyph-name="uni69" unicode="&#x69;" d="M188 622L128 622L105 511L114 511ZM201 67L186 82L169 69C160 73 146 87 146 98L146 375L171 404L96 475L21 409L54 375L54 113C54 59 57 15 111-12Z"  horiz-adv-x="208" vert-adv-y="1000"  />

      
      <glyph glyph-name="uni6a" unicode="&#x6a;" d="M206 622L146 622L124 511L132 511ZM205 387C172 413 143 443 115 475L17 394L30 380L59 401L89 368C71 324 61 277 61 230C61 158 85 88 85 16C85-36 69-75 29-109L40-124C121-85 166-27 166 65C166 116 155 166 155 217C155 279 170 335 205 387Z"  horiz-adv-x="238" vert-adv-y="1000"  />

      
      <glyph glyph-name="uni6b" unicode="&#x6b;" d="M394 69L378 86L362 73C324 118 359 217 267 286C297 315 326 345 357 374L268 475L148 353L148 543C148 579 164 610 193 632L191 637C153 634 122 615 98 585L88 585C71 602 48 613 25 619L22 614C42 596 56 573 56 545L56 456L8 456L8 403L56 403L56 133C56 104 56 78 30 58C81 45 126 18 169-12L257 91C261 55 271 10 304-11ZM276 329L148 206L148 320L219 393ZM251 124L201 64L148 95L148 175L200 224C231 197 248 165 251 124Z"  horiz-adv-x="389" vert-adv-y="1000"  />

      
      <glyph glyph-name="uni6c" unicode="&#x6c;" d="M276 75L262 91L238 70L173 115L173 541C173 577 189 609 218 630L216 634C177 632 146 611 120 583L111 583C92 598 70 611 46 616L43 612C59 596 81 570 81 547L81 145C81 115 74 89 49 70C100 52 150 28 188-11C217 18 246 47 276 75Z"  horiz-adv-x="280" vert-adv-y="1000"  />

      
      <glyph glyph-name="uni6d" unicode="&#x6d;" d="M595 67L580 82L563 69C554 73 540 87 540 98L540 362C551 385 566 406 581 426L566 441L528 404L464 475C427 436 388 398 344 366C336 408 317 446 284 475L148 364C148 417 133 448 87 475L7 394L22 378L38 394C51 381 57 366 57 348L57 88L29 57L103-12L175 57L149 91L149 336L221 394C235 385 253 366 253 348L253 88L225 57L300-12L371 57L345 91L345 340L408 394L448 351L448 113C448 57 457 19 507-12Z"  horiz-adv-x="597" vert-adv-y="1000"  />

      
      <glyph glyph-name="uni6e" unicode="&#x6e;" d="M397 67L382 82L365 69C356 73 342 87 342 98L342 362C353 385 368 406 383 426L369 441L330 404L266 475C229 436 190 398 147 366C147 417 132 450 86 475L5 394L20 378L36 391C49 380 55 365 55 348L55 88L27 57L101-12L173 57L147 91L147 340L210 390L250 351L250 113C250 57 259 19 309-12Z"  horiz-adv-x="403" vert-adv-y="1000"  />

      
      <glyph glyph-name="uni6f" unicode="&#x6f;" d="M335 66L335 402C282 409 227 444 185 475C148 434 102 407 49 393L49 150C49 120 47 90 21 70C84 56 143 28 194-12C234 25 283 50 335 66ZM243 73C209 86 175 101 141 115L141 393C174 377 208 361 243 348Z"  horiz-adv-x="385" vert-adv-y="1000"  />

      
      <glyph glyph-name="uni70" unicode="&#x70;" d="M350 91L350 315C350 387 325 451 252 475C224 438 192 405 158 374C153 419 134 455 92 475L9 395L23 380L46 398C65 388 66 368 66 349L66 113C48 110 32 103 15 97L15 62C32 64 50 63 66 58L66-25C66-63 49-91 25-118C57-118 81-97 102-75C127-110 156-139 202-139L205-139C177-104 157-70 157-23L157 35C184 23 210 10 234-7C268 30 306 66 350 91ZM259 76C226 91 193 103 158 112L158 340L212 393C231 385 259 360 259 338Z"  horiz-adv-x="391" vert-adv-y="1000"  />

      
      <glyph glyph-name="uni71" unicode="&#x71;" d="M359-118C335-91 318-60 318-24L318 347L341 380L341 384C276 394 216 433 166 475C128 439 82 413 31 400L31 113C31 65 54 17 94-11L226 98L226-23C226-68 207-105 179-139C228-139 256-112 282-75C302-96 327-118 357-118ZM226 128L154 70C138 79 123 96 123 115L123 387L226 335Z"  horiz-adv-x="356" vert-adv-y="1000"  />

      
      <glyph glyph-name="uni72" unicode="&#x72;" d="M307 397L242 475L149 393C147 432 123 457 90 475L5 394L20 378L36 396C48 382 55 367 55 348L55 145C55 117 51 89 27 70C74 53 119 26 153-11C182 18 211 47 241 75L227 91L200 68L147 108L147 368L186 396L241 336Z"  horiz-adv-x="319" vert-adv-y="1000"  />

      
      <glyph glyph-name="uni73" unicode="&#x73;" d="M357 500C357 521 346 540 323 540C310 540 299 529 299 516C299 498 323 489 323 470C323 443 294 435 272 435C228 435 184 454 147 476C114 441 74 412 30 393L30 233L122 179L5 8L23-5C52 11 84 22 117 22C151 22 184 9 211-11C246 21 286 49 331 63L331 252L243 309L328 432C342 452 357 475 357 500ZM259 375L171 248L118 279L118 393C145 378 176 369 207 369C224 369 242 372 259 375ZM248 74C220 92 188 105 154 105C132 105 111 100 90 93L194 237L248 205Z"  horiz-adv-x="370" vert-adv-y="1000"  />

      
      <glyph glyph-name="uni74" unicode="&#x74;" d="M244 403L244 456L146 456L146 594L20 420L20 402L54 402L54 145C54 116 49 89 25 70C73 55 114 25 149-11C177 18 206 47 236 75L222 91L196 69L146 110L146 403Z"  horiz-adv-x="266" vert-adv-y="1000"  />

      
      <glyph glyph-name="uni75" unicode="&#x75;" d="M397 67L382 82L365 69C356 74 342 87 342 98L342 382L370 411L296 475L224 411L250 379L250 128L178 70C163 79 147 96 147 115L147 382L175 411L100 475L5 394L20 378L41 394L55 379L55 113C55 65 78 17 118-11L250 98C250 49 266 14 309-12Z"  horiz-adv-x="398" vert-adv-y="1000"  />

      
      <glyph glyph-name="uni76" unicode="&#x76;" d="M335 66L335 370C335 408 298 450 271 475L141 367C139 445 75 485 75 523C75 549 96 571 114 588L107 601C59 576 9 537 9 478C9 443 28 410 49 383L49 150C49 119 47 91 21 70C84 56 143 28 194-12C234 25 283 50 335 66ZM244 73C209 86 175 100 141 115L141 336L213 394C227 380 244 359 244 339Z"  horiz-adv-x="385" vert-adv-y="1000"  />

      
      <glyph glyph-name="uni77" unicode="&#x77;" d="M519 66L519 360C519 408 487 445 454 475L329 366C326 412 300 446 266 475L141 367C139 445 75 485 75 523C75 549 96 571 114 588L107 601C59 576 9 537 9 478C9 443 28 410 49 383L49 150C49 119 47 91 21 70C81 53 141 28 190-12C214 10 243 30 277 30C313 30 354 6 384-12C423 23 469 50 519 66ZM434 68C399 77 364 89 331 103L331 336L403 394C417 380 434 359 434 339ZM239 68C206 80 173 95 141 110L141 336L208 394C222 380 239 359 239 339Z"  horiz-adv-x="568" vert-adv-y="1000"  />

      
      <glyph glyph-name="uni78" unicode="&#x78;" d="M397 69L384 84L360 64C312 97 255 236 233 281L273 378L345 342L376 420L285 475L218 310C188 370 162 441 99 474L7 396L19 382L50 405C75 393 92 373 104 348L169 218L119 93L42 125L11 45L104-12L184 189C217 124 255 29 316-12Z"  horiz-adv-x="405" vert-adv-y="1000"  />

      
      <glyph glyph-name="uni79" unicode="&#x79;" d="M362 309C362 369 343 427 301 472L176 362C176 412 160 450 115 475L22 384L37 367L66 392C80 381 85 365 85 348L85 81C85 53 9-17 9-69C9-125 64-140 110-140C138-140 218-129 218-91C218-80 211-73 200-73C179-73 160-115 109-115C78-115 37-103 37-65C37 39 362 88 362 309ZM275 274C275 197 236 135 176 89L176 334L236 386C266 357 275 314 275 274Z"  horiz-adv-x="391" vert-adv-y="1000"  />

      
      <glyph glyph-name="uni7a" unicode="&#x7a;" d="M255 157C255 232 197 264 129 266L245 386L245 392C208 394 161 450 134 474L13 386L27 368L79 405L157 328L18 183C41 188 65 196 89 196C135 196 163 171 163 124C163 35 40 11 40-69C40-104 72-139 108-139C119-139 139-132 139-118C139-109 131-104 123-104C113-104 103-109 93-109C73-109 59-88 59-70C59 10 255 9 255 157Z"  horiz-adv-x="293" vert-adv-y="1000"  />

      
      <glyph glyph-name="uni7b" unicode="&#x7b;" d="M301 13L290 14C279-2 266-18 248-26C219-24 191-16 162-16C145-16 120-28 104-35C130-7 171 52 171 92L171 232C148 290 165 289 106 328C164 360 150 367 171 421L171 561C171 601 130 660 104 688C120 681 145 669 162 669C191 669 219 677 248 679C266 671 279 655 290 639L301 640C295 664 285 686 274 708C257 723 226 743 203 743C158 743 115 731 77 708C72 699 68 689 65 679C82 645 88 607 88 570C88 480 95 376 7 325C96 279 88 170 88 83C88 46 82 8 65-26C68-36 72-46 77-55C115-78 158-90 203-90C226-90 257-70 274-55C285-33 295-11 301 13Z"  horiz-adv-x="328" vert-adv-y="1000"  />

      
      <glyph glyph-name="uni7c" unicode="&#x7c;" d="M287-236L287 764L214 764L214-236Z"  horiz-adv-x="500" vert-adv-y="1000"  />

      
      <glyph glyph-name="uni7d" unicode="&#x7d;" d="M307 325C219 376 226 480 226 570C226 607 232 645 249 679C246 689 242 699 237 708C199 731 156 743 111 743C88 743 57 723 40 708C29 686 19 664 13 640L24 639C35 655 48 671 66 679C95 677 123 669 152 669C169 669 194 681 210 688C184 660 143 601 143 561L143 421C164 367 150 360 208 328C149 289 166 290 143 232L143 92C143 52 184-7 210-35C194-28 169-16 152-16C123-16 95-24 66-26C48-18 35-2 24 14L13 13C19-11 29-33 40-55C57-70 88-90 111-90C156-90 199-78 237-55C242-46 246-36 249-26C232 8 226 46 226 83C226 170 218 279 307 325Z"  horiz-adv-x="328" vert-adv-y="1000"  />

      
      <glyph glyph-name="uni7e" unicode="&#x7e;" d="M747 300L747 376C692 336 628 300 558 300C461 300 376 366 276 366C207 366 143 334 87 296L87 220C142 259 206 297 275 297C374 297 458 231 557 231C626 231 691 261 747 300Z"  horiz-adv-x="833" vert-adv-y="1000"  />

      
      <glyph glyph-name="uni201A" unicode="&#x201A;" d="M180 80C155 101 130 123 109 148L35 77C52 62 78 36 78 12C78-14 53-38 34-53L53-74C110-37 160 14 180 80Z"  horiz-adv-x="231" vert-adv-y="1000"  />

      
      <glyph glyph-name="uni0453" unicode="&#x0453;" d="M302 586L207 611C179 581 146 558 111 538L111 397L63 397L52 343L111 343L111-62L20-39L2-113L100-139C130-110 161-81 197-60L197 343L258 343L270 397L197 397L197 534L282 513Z"  horiz-adv-x="326" vert-adv-y="1000"  />

      
      <glyph glyph-name="uni201E" unicode="&#x201E;" d="M363 80C338 101 314 123 293 148L218 77C235 62 261 36 261 12C261-14 236-37 218-53L236-74C293-37 343 14 363 80ZM180 80C155 101 130 123 109 148L35 77C52 62 78 36 78 12C78-14 53-38 34-53L53-74C110-37 160 14 180 80Z"  horiz-adv-x="414" vert-adv-y="1000"  />

      
      <glyph glyph-name="uni2026" unicode="&#x2026;" d="M909 66C883 92 856 118 834 148L751 70C771 39 798 13 826-11ZM575 66C549 92 522 118 500 148L417 70C437 39 464 13 492-11ZM242 66C216 92 189 118 167 148L84 70C104 39 131 13 159-11Z"  horiz-adv-x="1000" vert-adv-y="1000"  />

      
      <glyph glyph-name="uni2020" unicode="&#x2020;" d="M437 472L418 472L404 435L281 435L281 648L263 648C246 628 225 613 202 601L202 435L84 435L47 328L66 328L78 361L202 361L202-139C222-113 249-98 281-92L281 361L398 361Z"  horiz-adv-x="500" vert-adv-y="1000"  />

      
      <glyph glyph-name="uni2021" unicode="&#x2021;" d="M437 188L418 188L405 152L281 152L281 360L399 360L437 472L418 472L405 436L281 436L281 648L263 648C245 629 224 614 202 601L202 436L85 436L47 328L66 328L76 360L202 360L202 152L85 152L47 44L66 44L76 75L202 75L202-139C220-111 250-99 281-93L281 75L399 75Z"  horiz-adv-x="500" vert-adv-y="1000"  />

      
      <glyph glyph-name="uni20AC" unicode="&#x20AC;" d="M382 540C342 588 306 640 275 694L225 694C194 640 158 588 118 540L133 525C178 551 218 584 250 625C282 584 321 550 366 525Z"  horiz-adv-x="500" vert-adv-y="1000"  />

      
      <glyph glyph-name="uni2030" unicode="&#x2030;" d="M1015 187C1015 280 950 330 871 363C797 321 733 256 733 166C733 74 798 15 882-9C950 38 1015 97 1015 187ZM683 187C683 280 618 330 539 363C465 321 401 256 401 166C401 74 466 15 550-9C618 38 683 97 683 187ZM560 611L506 611L149-9L203-9ZM311 435C311 528 247 578 168 611C95 569 29 504 29 414C29 322 94 263 178 239C246 286 311 345 311 435ZM958 164C958 125 949 85 919 58C845 71 790 131 790 207C790 243 806 276 831 302C899 287 958 238 958 164ZM626 164C626 125 617 85 587 58C513 71 459 131 459 207C459 243 473 276 499 302C567 287 626 238 626 164ZM255 412C255 373 246 333 216 306C142 319 87 379 87 455C87 491 101 524 127 550C195 535 255 487 255 412Z"  horiz-adv-x="1044" vert-adv-y="1000"  />

      
      <glyph glyph-name="uni0409" unicode="&#x0409;" d="M677 642L673 645C641 631 607 622 572 622C531 622 490 633 454 652C386 594 306 542 213 542C206 542 199 542 192 543L192 447C101 447 27 407 19 309L27 309C52 344 83 356 125 356L192 356L192 287C101 287 27 247 19 149L27 149C52 184 83 196 125 196L192 196L192 24C192-33 57-81 57-178C57-194 67-214 86-214C101-214 109-201 109-187C109-170 99-154 99-137C99-83 192-71 232-71C260-71 286-58 308-43C385 8 438 102 438 195L438 542C468 527 501 518 534 518C613 518 663 566 677 642ZM343 174C343 59 301-20 187-55C274 12 287 98 287 201L287 519C306 521 326 526 343 535Z"  horiz-adv-x="644" vert-adv-y="1000"  />

      
      <glyph glyph-name="uni2039" unicode="&#x2039;" d="M238 100L132 231L238 364L213 399C172 333 98 289 47 231C98 172 166 128 211 63Z"  horiz-adv-x="304" vert-adv-y="1000"  />

      
      <glyph glyph-name="uni040A" unicode="&#x040A;" d="M341 64L341 290C341 337 317 367 284 398C301 413 318 428 334 444L244 548L146 452L146 543C146 580 161 610 191 632L189 637C150 634 119 616 95 585L86 585C69 602 46 613 23 619L20 614C38 596 54 573 54 547L54 156C54 128 50 100 26 81C93 68 154 32 206-11C244 26 291 50 341 64ZM252 402L146 305L146 419L195 466ZM250 77L146 128L146 274L218 333C232 324 250 306 250 288Z"  horiz-adv-x="391" vert-adv-y="1000"  />

      
      <glyph glyph-name="uni2018" unicode="&#x2018;" d="M180 497C164 513 137 539 137 563C137 587 162 612 179 627L161 648C104 611 54 561 34 494C59 473 83 451 105 426Z"  horiz-adv-x="231" vert-adv-y="1000"  />

      
      <glyph glyph-name="uni2019" unicode="&#x2019;" d="M180 579C154 600 130 623 109 648L35 577C52 562 78 535 78 511C78 485 52 462 34 447L53 426C110 463 159 513 180 579Z"  horiz-adv-x="231" vert-adv-y="1000"  />

      
      <glyph glyph-name="uni201C" unicode="&#x201C;" d="M380 627L361 648C304 611 254 560 234 494C259 473 284 450 305 425L379 497C362 512 336 538 336 562C336 588 361 612 380 627ZM197 627L178 648C121 611 71 560 51 494C76 473 101 450 122 425L196 497C179 512 153 538 153 562C153 588 178 612 197 627Z"  horiz-adv-x="414" vert-adv-y="1000"  />

      
      <glyph glyph-name="uni201D" unicode="&#x201D;" d="M363 579C338 600 314 623 293 648L218 577C235 562 261 535 261 511C261 485 237 462 218 447L236 426C293 463 342 513 363 579ZM180 579C154 600 130 623 109 648L35 577C52 562 78 535 78 511C78 485 52 462 34 447L53 426C110 463 159 513 180 579Z"  horiz-adv-x="414" vert-adv-y="1000"  />

      
      <glyph glyph-name="uni2022" unicode="&#x2022;" d="M439 372C439 451 374 516 295 516C215 516 150 452 150 372C150 292 214 227 294 227C373 227 439 293 439 372Z"  horiz-adv-x="590" vert-adv-y="1000"  />

      
      <glyph glyph-name="uni2013" unicode="&#x2013;" d="M500 206L500 267L0 267L0 206Z"  horiz-adv-x="500" vert-adv-y="1000"  />

      
      <glyph glyph-name="uni2014" unicode="&#x2014;" d="M1000 206L1000 267L0 267L0 206Z"  horiz-adv-x="1000" vert-adv-y="1000"  />

      
      <glyph glyph-name="uni2122" unicode="&#x2122;" d="M699 441L699 455C678 456 664 457 664 482L664 665C664 690 678 691 699 692L699 704L611 704L541 513L474 704L381 704L381 691C401 689 418 688 418 663L418 482C418 456 402 456 381 455L381 441L477 441L477 455C456 456 440 456 440 482L440 672L524 440L534 440L618 671L618 482C618 457 603 456 582 455L582 441ZM344 615L339 704L122 704L117 615L130 615C134 658 149 689 197 689L205 689L205 482C205 458 189 456 169 455L169 441L293 441L293 455C272 456 257 457 257 482L257 689C310 689 326 665 331 615Z"  horiz-adv-x="822" vert-adv-y="1000"  />

      
      <glyph glyph-name="uni203A" unicode="&#x203A;" d="M263 231C212 289 138 333 97 399L72 364L178 231L72 100L99 63C144 128 212 172 263 231Z"  horiz-adv-x="304" vert-adv-y="1000"  />

      
      <glyph glyph-name="uni045A" unicode="&#x045A;" d="M661 74L645 89C640 84 631 73 623 73C604 73 601 113 601 126L601 511C601 545 620 572 641 597L627 608L588 579L485 649L385 581L385 364L321 364L321 513C321 550 342 585 366 612L357 620L294 580L222 649L124 547L144 532L173 561L217 521L217 364L161 364L110 290L217 290L217 129C217 111 203 100 191 89L191 81C228 53 263 22 292-14L445 122L430 138L408 119L408 290L496 290L496 110C496 53 513 6 570-15ZM496 364L408 364L408 569L426 579L496 528ZM385 101L354 75C326 85 321 95 321 124L321 290L385 290Z"  horiz-adv-x="701" vert-adv-y="1000"  />

      
      <glyph glyph-name="uni045F" unicode="&#x045F;" d="M478 478C478 511 451 540 417 540C383 540 356 511 356 478C356 444 383 417 417 417C450 417 478 445 478 478ZM709 264L709 332L124 332L124 264ZM478 118C478 151 450 179 417 179C384 179 356 151 356 118C356 84 383 57 417 57C450 57 478 85 478 118Z"  horiz-adv-x="833" vert-adv-y="1000"  />

      
      <glyph glyph-name="uni045E" unicode="&#x045E;" d="M280 493L210 542L210 623L168 623L168 566C138 530 98 504 55 485L55 225C55 196 47 172 31 148C81 135 128 112 168 80L168-21L210-21L210 120C231 141 254 161 278 179L265 196L225 162L210 168L210 448L235 431ZM171 181L136 196L136 496L171 475Z"  horiz-adv-x="463" vert-adv-y="1000"  />

      
      <glyph glyph-name="uni0408" unicode="&#x0408;" d="M435 82C397 96 357 104 317 104C274 104 231 98 189 86C208 125 230 173 234 217L349 217L349 241L235 241C238 253 235 267 234 279L349 279L349 303L230 303C214 342 186 405 186 446C186 478 199 509 217 535L382 457L424 541L273 611C190 555 102 454 102 349C102 334 105 318 108 303L54 303L54 279L113 279C116 266 120 253 125 241L54 241L54 217L136 217C152 191 164 160 164 129C164 110 162 91 154 74C116 58 78 40 46 14L63-8C114 9 182 30 235 30C294 30 350 12 402-15Z"  horiz-adv-x="463" vert-adv-y="1000"  />

      
      <glyph glyph-name="unia4" unicode="&#xa4;" d="M568 209L468 309C495 344 508 388 508 432C508 476 495 520 468 555L568 656L528 695L428 595C392 623 349 637 303 637C258 637 215 622 179 595L79 695L39 656L140 555C113 520 99 476 99 432C99 388 113 344 140 309L39 209L79 169L179 269C215 241 258 227 304 227C349 227 392 242 428 269L528 169ZM452 433C452 351 386 284 304 284C222 284 156 351 156 433C156 514 223 581 304 581C385 581 452 514 452 433Z"  horiz-adv-x="606" vert-adv-y="1000"  />

      
      <glyph glyph-name="uni0490" unicode="&#x0490;" d="M402 254L287 254C355 302 401 362 401 448C401 507 382 566 341 609L177 507C162 558 137 611 76 611C22 611-9 569-31 525L-25 519C-10 533 8 545 29 545C70 545 85 503 94 470L153 254L53 254L46 198L160 198C160 183 161 168 161 154C161 124 158 89 132 70C173 57 213 19 244-11C272 18 301 47 331 75L317 91L291 67L248 104L248 198L394 198ZM320 422C320 353 292 297 243 249L184 485L279 543C310 511 320 465 320 422Z"  horiz-adv-x="463" vert-adv-y="1000"  />

      
      <glyph glyph-name="unia6" unicode="&#xa6;" d="M287 329L287 699L214 699L214 329ZM287-171L287 199L214 199L214-171Z"  horiz-adv-x="500" vert-adv-y="1000"  />

      
      <glyph glyph-name="unia7" unicode="&#xa7;" d="M403 300C403 323 398 345 391 367C316 384 114 415 114 518C114 542 125 566 137 586L364 528L397 611L222 649C134 634 54 566 54 471C54 436 69 402 92 376C64 335 40 288 40 238C40 215 44 192 51 170C121 149 196 133 262 100C309 76 332 60 332 3C332-25 324-52 309-76L59-12L27-95L223-138C320-124 393-50 393 50C393 89 381 128 350 154C379 197 403 247 403 300ZM343 253C343 226 330 194 320 169C289 180 258 190 226 199C185 211 96 227 96 282C96 309 109 339 120 363C156 348 193 336 231 325C256 318 282 313 306 303C331 293 343 281 343 253Z"  horiz-adv-x="463" vert-adv-y="1000"  />

      
      <glyph glyph-name="uni0401" unicode="&#x0401;" d="M527 709C503 754 492 760 443 774C414 749 404 736 391 700C427 694 447 671 470 646C482 669 500 703 527 709ZM327 709C302 753 294 761 244 774C217 749 206 734 191 700C229 693 247 675 270 646C283 666 303 703 327 709ZM586 162L579 166C523 114 460 76 382 76C369 76 355 77 342 79L343 346L499 345C515 380 533 414 549 449L444 449L580 598C507 591 428 607 366 648L174 484L174 238C174 217 174 196 162 178C122 227 104 291 104 354C104 450 151 525 225 582L223 586C93 539 20 416 20 281C20 110 141-16 313-16C446-16 529 44 586 162ZM455 497L342 373L342 542ZM319 83C265 94 215 121 178 162C238 211 277 259 277 341L277 527L319 561Z"  horiz-adv-x="590" vert-adv-y="1000"  />

      
      <glyph glyph-name="unia9" unicode="&#xa9;" d="M780 348C780 541 623 698 430 698C237 698 80 541 80 348C80 155 237-2 430-2C623-2 780 155 780 348ZM745 348C745 174 604 33 430 33C256 33 115 174 115 348C115 522 256 663 430 663C604 663 745 522 745 348ZM619 226L614 230C571 191 522 160 463 160C452 160 442 161 431 163L431 519C466 507 501 495 535 480L604 554C550 554 499 572 452 598L303 473C303 431 311 267 294 239C262 276 251 326 251 374C251 448 284 503 343 547L341 551C242 515 185 420 185 317C185 187 278 90 409 90C511 90 575 136 619 226ZM414 166C373 175 335 194 307 226C353 265 382 300 382 363L382 505L414 531Z"  horiz-adv-x="858" vert-adv-y="1000"  />

      
      <glyph glyph-name="uniab" unicode="&#xab;" d="M412 100L305 231L411 364L386 399C345 333 271 289 220 231C272 172 340 129 385 63ZM238 100L132 231L238 364L213 399C172 333 98 289 47 231C98 172 166 128 211 63Z"  horiz-adv-x="458" vert-adv-y="1000"  />

      
      <glyph glyph-name="uniac" unicode="&#xac;" d="M709 175L709 420L124 420L124 352L642 352L642 175Z"  horiz-adv-x="833" vert-adv-y="1000"  />

      
      <glyph glyph-name="uniae" unicode="&#xae;" d="M693 348C693 522 552 663 378 663C204 663 63 522 63 348C63 174 204 33 378 33C552 33 693 174 693 348ZM661 348C661 191 535 65 378 65C221 65 95 191 95 348C95 505 221 631 378 631C535 631 661 505 661 348ZM597 214L588 224L574 212C532 247 552 342 451 396L535 455C507 494 479 533 449 571L342 497C339 541 313 568 268 568C239 568 212 554 190 536L190 528C204 530 218 534 233 534C261 534 280 517 280 488L280 453L181 380L181 377C236 352 275 311 282 250C236 237 197 210 169 172L171 168C209 183 250 194 291 194C332 194 366 179 399 155L463 221L454 229L440 217C424 229 405 236 386 244L386 347C485 347 468 204 532 159L540 159ZM473 428L386 364L386 511L403 524ZM372 246C363 249 354 250 345 250L345 483L372 501ZM280 369L236 403L280 435Z"  horiz-adv-x="744" vert-adv-y="1000"  />

      
      <glyph glyph-name="uni0407" unicode="&#x0407;" d="M379 636L118 636L109 572L369 572Z"  horiz-adv-x="500" vert-adv-y="1000"  />

      
      <glyph glyph-name="unib0" unicode="&#xb0;" d="M305 570C305 647 243 711 165 711C88 711 24 647 24 570C24 492 86 430 164 430C242 430 305 492 305 570ZM259 571C259 518 218 475 165 475C112 475 70 518 70 571C70 623 113 665 165 665C217 665 259 623 259 571Z"  horiz-adv-x="329" vert-adv-y="1000"  />

      
      <glyph glyph-name="unib1" unicode="&#xb1;" d="M709 348L709 416L451 416L451 582L382 582L382 416L124 416L124 348L382 348L382 182L451 182L451 348ZM709 14L709 83L124 83L124 14Z"  horiz-adv-x="833" vert-adv-y="1000"  />

      
      <glyph glyph-name="uni0406" unicode="&#x0406;" d="M271 288C242 305 208 311 174 311C129 311 85 301 44 285C108 370 266 381 266 509C266 515 266 522 265 528L125 608L11 523L53 485L163 564C184 548 198 525 198 499C198 394 19 352 1 236C37 250 75 259 114 259C152 259 189 250 224 236Z"  horiz-adv-x="306" vert-adv-y="1000"  />

      
      <glyph glyph-name="uni0456" unicode="&#x0456;" d="M268 341C268 395 220 421 174 434C215 450 253 478 253 526C253 533 253 539 251 546L119 607L27 543L64 507C80 518 149 568 162 568C180 568 186 549 186 534C186 468 135 442 76 440L76 425C137 426 201 410 201 336C201 307 190 280 169 260L45 356L-1 316L104 236C164 240 268 265 268 341Z"  horiz-adv-x="306" vert-adv-y="1000"  />

      
      <glyph glyph-name="uni0491" unicode="&#x0491;" d="M389 670L317 696C278 638 229 587 175 543L215 525C281 562 342 610 389 670Z"  horiz-adv-x="500" vert-adv-y="1000"  />

      
      <glyph glyph-name="unib5" unicode="&#xb5;" d="M544 156C544 162 540 170 533 170C507 170 516 61 433 61C401 61 383 78 383 110C383 131 388 152 392 172L448 432L364 432L309 174C295 110 266 63 194 63C147 63 115 86 115 135C115 157 119 179 124 200L173 432L91 432L38 182C24 117 7 53-12-11C-23-49-50-123-50-159C-50-187-36-205-7-205C37-205 42-134 46-103C55-37 66 30 81 95C88 32 121-12 188-12C262-12 303 33 332 96C332 40 350-12 415-12C497-12 544 85 544 156Z"  horiz-adv-x="571" vert-adv-y="1000"  />

      
      <glyph glyph-name="uni03BC" unicode="&#x03BC;" d="M544 156C544 162 540 170 533 170C507 170 516 61 433 61C401 61 383 78 383 110C383 131 388 152 392 172L448 432L364 432L309 174C295 110 266 63 194 63C147 63 115 86 115 135C115 157 119 179 124 200L173 432L91 432L38 182C24 117 7 53-12-11C-23-49-50-123-50-159C-50-187-36-205-7-205C37-205 42-134 46-103C55-37 66 30 81 95C88 32 121-12 188-12C262-12 303 33 332 96C332 40 350-12 415-12C497-12 544 85 544 156Z"  horiz-adv-x="571" vert-adv-y="1000"  />

      
      <glyph glyph-name="unib6" unicode="&#xb6;" d="M468 680L468 722L224 722C120 722 32 664 32 552C32 445 113 386 214 382L214 0L268 0L268 680L355 680L355 0L409 0L409 680Z"  horiz-adv-x="500" vert-adv-y="1000"  />

      
      <glyph glyph-name="unib7" unicode="&#xb7;" d="M182 310C182 347 153 377 116 377C81 377 49 345 49 310C49 276 82 244 116 244C151 244 182 275 182 310Z"  horiz-adv-x="231" vert-adv-y="1000"  />

      
      <glyph glyph-name="uni2219" unicode="&#x2219;" d="M182 310C182 347 153 377 116 377C81 377 49 345 49 310C49 276 82 244 116 244C151 244 182 275 182 310Z"  horiz-adv-x="231" vert-adv-y="1000"  />

      
      <glyph glyph-name="uni0451" unicode="&#x0451;" d="M304 535C287 573 272 580 233 591C213 571 199 554 188 527C215 521 236 500 255 481C267 500 282 528 304 535ZM151 535C136 573 117 580 80 591C60 571 46 554 35 527C62 521 83 500 102 481C114 500 129 528 151 535ZM305 338L180 475C139 444 97 413 49 393L49 122C49 94 45 66 21 47C69 37 116 18 156-11C200 26 245 62 292 94L278 111L216 68L141 103L141 205C194 251 249 296 305 338ZM225 306L136 233L136 402Z"  horiz-adv-x="308" vert-adv-y="1000"  />

      
      <glyph glyph-name="uni2116" unicode="&#x2116;" d="M923 377L923 612C884 617 844 642 811 663C783 635 748 615 709 606L709 436C709 414 708 394 688 380C735 370 779 351 818 323C848 349 885 366 923 377ZM953 252L951 292L690 292L693 252ZM701 103L681 115L664 91C636 98 606 103 577 103C553 103 529 98 506 91C582 182 658 296 658 420C658 546 547 614 440 648L200 501L200 420C178 429 153 437 129 437C101 437 78 427 61 404C133 404 187 374 200 299C177 310 153 320 127 320C97 320 74 308 60 281C70 283 80 284 90 284C148 284 185 251 199 196C185 200 171 202 156 202C125 202 99 190 83 162C93 163 103 164 113 164C169 164 230 142 230 76C230 34 199 18 161 18C131 18 101 26 71 26C14 26-24-8-53-54L-51-59C-31-49-9-42 14-42C67-42 115-74 169-74C280-74 353 26 353 131L353 238C381 258 413 272 448 272C478 272 505 256 528 237C494 152 421 23 410-63L420-71C446-24 488 1 541 1C572 1 603-7 633-16ZM854 382L778 411L778 606C803 594 828 584 854 575ZM545 420C521 394 488 378 453 378C416 378 382 396 353 418L353 547C435 540 517 504 545 420ZM555 360C555 326 547 292 534 261C509 280 479 293 447 293C413 293 381 280 353 262L353 392C382 371 417 357 453 357C489 357 524 371 551 396C554 384 555 372 555 360ZM329 150C329 89 313 8 236 8C231 8 226 8 221 9C284 37 292 111 292 172L292 525L329 545Z"  horiz-adv-x="971" vert-adv-y="1000"  />

      
      <glyph glyph-name="uni0454" unicode="&#x0454;" d="M251 377L251 612C212 617 172 642 139 663C111 635 76 615 37 606L37 436C37 414 36 394 16 380C63 370 107 351 146 323C176 349 213 366 251 377ZM182 382L106 411L106 606C131 594 156 584 182 575Z"  horiz-adv-x="289" vert-adv-y="1000"  />

      
      <glyph glyph-name="unibb" unicode="&#xbb;" d="M413 231C362 289 288 333 247 399L222 364L328 231L222 100L249 63C294 128 362 172 413 231ZM240 231C189 289 115 333 74 399L49 364L155 231L48 100L75 63C120 129 188 172 240 231Z"  horiz-adv-x="458" vert-adv-y="1000"  />

      
      <glyph glyph-name="uni0405" unicode="&#x0405;" d="M277-18C262-22 246-23 231-23C196-23 161-14 133 8C151 57 155 111 155 163C155 244 142 324 142 405C142 505 157 605 235 676L221 686C97 594 41 474 41 321C41 249 56 177 56 105C56 49 45-6 31-60C45-61 59-61 73-61C113-61 140-98 170-98C208-98 277-61 277-18Z"  horiz-adv-x="258" vert-adv-y="1000"  />

      
      <glyph glyph-name="uni0455" unicode="&#x0455;" d="M240 660C226 661 211 661 197 661C157 661 130 698 100 698C62 698-7 661-7 618C8 622 24 623 40 623C75 623 110 614 138 592C120 543 116 490 116 438C116 357 129 277 129 196C129 92 115-1 36-76L49-86C174 6 230 124 230 278C230 351 215 424 215 497C215 552 225 607 240 660Z"  horiz-adv-x="272" vert-adv-y="1000"  />

      
      <glyph glyph-name="uni0457" unicode="&#x0457;" d="M697 69L468 298L697 527L649 575L420 346L191 575L143 527L372 298L143 69L191 22L420 250L649 22Z"  horiz-adv-x="833" vert-adv-y="1000"  />

      
      <glyph glyph-name="uni0410" unicode="&#x0410;" d="M597 79L581 98L548 73C522 95 522 135 521 167C519 280 514 394 514 508C514 572 543 609 590 649L588 653C540 643 504 619 474 580C417 621 356 649 284 649C158 649 34 552 34 420C34 341 85 277 142 227L53 98C36 74 17 45 17 14C17-2 26-15 43-15C57-15 68-5 68 9C68 22 57 33 57 46C57 61 68 75 84 75C114 75 230 2 265-17L410 95C417 49 442 6 483-18ZM408 278L212 278L381 521L386 521L404 494ZM358 542L334 507C314 513 294 517 273 517C214 517 166 476 166 415L166 409C182 443 205 460 243 460C260 460 277 453 286 438L155 247C108 282 69 335 69 396C69 498 156 567 254 567C290 567 325 557 358 542ZM410 130L329 65L128 156L164 207L409 207Z"  horiz-adv-x="602" vert-adv-y="1000"  />

      
      <glyph glyph-name="uni0411" unicode="&#x0411;" d="M666 94L666 275C666 346 601 385 536 385C484 385 434 362 397 325L397 516C397 561 432 605 479 605C546 605 570 544 570 486C585 513 607 542 641 542C646 542 652 542 657 541C658 544 658 547 658 550C658 603 587 663 536 663C374 663 304 597 304 434C304 280 334 154 177 63C238 131 254 191 254 281C254 339 253 398 253 456C253 530 271 598 334 644L330 651C303 644 276 637 248 637C211 637 175 649 138 649C73 649 31 602 17 542L25 541C37 565 54 586 83 586C113 586 142 574 172 574C200 574 238 591 263 603C196 553 147 475 143 390C87 389 30 360 21 300C42 311 66 320 90 320C131 320 161 293 161 251C161 246 161 242 160 237C119 227 77 208 77 159C77 150 78 141 81 132C95 150 113 168 137 168C154 168 162 152 162 137C162 65 41 7 41-78C41-95 51-114 70-114C85-114 93-101 93-87C93-70 83-54 83-37C83 17 176 29 216 29C286 29 349 12 413-16C490 36 574 78 666 94ZM555 281C539 275 523 271 506 271C488 271 471 275 454 280L454 343C468 354 490 360 507 363C524 357 555 337 555 317ZM555 187C538 191 521 194 504 194C487 194 470 192 454 187L454 259C471 255 488 252 506 252C523 252 539 255 555 259ZM555 101C539 93 521 87 505 78L454 96L454 167C470 172 487 175 504 175C521 175 539 173 555 166ZM434 104C408 112 382 117 355 117C323 117 292 111 261 105C336 144 398 210 397 299C408 310 421 321 434 330Z"  horiz-adv-x="715" vert-adv-y="1000"  />

      
      <glyph glyph-name="uni0412" unicode="&#x0412;" d="M666 94L666 275C666 358 608 378 536 385C582 427 648 489 648 555C648 606 605 663 550 663C526 663 496 654 472 647C356 614 304 557 304 434C304 279 334 154 177 63C241 135 254 195 254 289L254 443C254 550 293 604 386 653L384 657C351 647 316 636 282 636C234 636 190 663 142 663C76 663 27 607 16 545L19 544C33 567 52 588 81 588C116 588 146 563 181 563C202 563 222 568 241 575C177 529 147 468 143 390C87 389 30 360 21 300C42 311 66 320 90 320C131 320 161 293 161 251C161 246 161 242 160 237C119 227 77 208 77 159C77 150 78 141 81 132C95 150 113 168 137 168C154 168 162 152 162 137C162 64 41 7 41-78C41-94 51-114 70-114C85-114 93-101 93-87C93-70 83-54 83-37C83 17 176 29 216 29C286 29 349 12 413-16C490 36 574 78 666 94ZM555 281C539 275 523 271 506 271C488 271 471 275 454 280L454 327C471 340 488 352 507 363C524 357 555 337 555 317ZM547 499C547 438 506 385 454 357L454 461L434 461L434 104C408 112 382 117 355 117C323 117 292 111 261 105C366 158 397 203 397 322L397 516C397 567 422 596 471 608C511 585 547 548 547 499ZM555 187C538 191 521 194 504 194C487 194 470 192 454 187L454 259C471 255 488 252 506 252C523 252 539 255 555 259ZM555 101C539 93 521 87 505 78L454 96L454 167C470 172 487 175 504 175C521 175 539 173 555 166Z"  horiz-adv-x="715" vert-adv-y="1000"  />

      
      <glyph glyph-name="uni0413" unicode="&#x0413;" d="M646 550C646 603 575 663 524 663C373 663 292 586 292 434C292 322 327 214 327 102C327 62 317 28 270 28C229 28 185 67 158 96C232 97 264 129 264 203C264 288 241 371 241 456C241 530 259 598 322 644L318 651C291 644 264 637 236 637C199 637 163 649 126 649C61 649 19 602 5 542L13 541C25 565 42 586 71 586C101 586 130 574 160 574C188 574 214 585 239 597C181 540 156 474 151 394C92 394 39 369 26 307C48 316 73 324 97 324C174 324 183 258 183 196C183 147 177 114 119 114C108 114 97 116 86 116C16 116-29 51-29-14L-29-16L-23-18C-7 13 16 35 52 35C121 35 180-16 250-16C371-16 417 102 417 206C417 311 394 412 385 516C385 520 384 525 384 529C384 565 402 586 434 599C438 601 452 605 455 605C519 605 558 545 558 486C573 513 595 542 629 542C634 542 640 542 645 541C646 544 646 547 646 550Z"  horiz-adv-x="652" vert-adv-y="1000"  />

      
      <glyph glyph-name="uni0414" unicode="&#x0414;" d="M706 182C706 289 696 460 627 546C569 618 496 625 410 625C356 625 303 622 249 618C209 615 168 609 128 609C87 609 40 626 28 670L22 669C21 661 21 653 21 645C21 563 73 512 155 512C200 512 246 516 291 517C204 467 149 393 144 291C134 293 124 294 114 294C56 294 5 262 0 200C15 219 37 234 62 234C106 234 127 195 127 155C127 92 71 39 27 1L34-7C162 83 256 132 256 305C256 391 233 486 337 519C320 488 316 452 316 418L316 255C316 176 274 127 213 83C153 40 88 4 27-38L36-51C117-5 207 32 301 32C383 32 466 15 543-13C589 32 642 71 703 93C705 123 706 152 706 182ZM582 369C558 342 529 331 494 331C460 331 431 343 408 369L408 522C517 522 573 481 582 369ZM593 217C567 235 536 244 505 244C471 244 438 232 408 215L408 337C433 318 465 310 496 310C529 310 560 319 586 340C591 306 593 271 593 237ZM385 132C371 134 358 135 344 135C329 135 314 134 299 132C336 172 341 229 341 281C341 323 337 364 337 406C337 445 340 490 364 522L385 522ZM594 164C594 142 593 120 592 98C532 115 470 127 408 131L408 185C433 209 467 223 502 223C537 223 569 211 594 185Z"  horiz-adv-x="755" vert-adv-y="1000"  />

      
      <glyph glyph-name="uni0415" unicode="&#x0415;" d="M586 162L579 166C523 114 460 76 382 76C369 76 355 77 342 79L343 346L499 345C515 380 533 414 549 449L444 449L580 598C507 591 428 607 366 648L174 484L174 238C174 217 174 196 162 178C122 227 104 291 104 354C104 450 151 525 225 582L223 586C93 539 20 416 20 281C20 110 141-16 313-16C446-16 529 44 586 162ZM455 497L342 373L342 542ZM319 83C265 94 215 121 178 162C238 211 277 259 277 341L277 527L319 561Z"  horiz-adv-x="590" vert-adv-y="1000"  />

      
      <glyph glyph-name="uni0416" unicode="&#x0416;" d="M859 95L844 109L819 84C767 164 716 278 626 320C679 364 730 409 788 446L683 563C634 514 582 466 524 428L524 609L542 627L533 642L445 580L371 649L273 547L293 532L322 561L354 528L353 428C297 465 253 516 206 563L101 446C156 411 201 364 251 323C162 281 110 163 58 84L33 109L18 95L120-16C181 49 242 245 342 245C346 245 349 244 353 244L353 42C422 42 446 15 498-22L601 84L586 99L565 78C551 79 537 82 524 86L524 244C528 244 531 245 535 245C632 245 698 48 760-16ZM678 391L536 275L524 275L524 403C554 423 583 445 612 467ZM503 89C485 94 471 109 458 122L458 534C466 552 486 580 503 591ZM353 275L341 275C296 312 256 354 211 391L277 464C303 444 326 421 353 403Z"  horiz-adv-x="876" vert-adv-y="1000"  />

      
      <glyph glyph-name="uni0417" unicode="&#x0417;" d="M569 41C523 63 478 88 428 100C474 123 540 167 540 225C540 317 396 322 331 322C383 330 512 397 512 457C512 514 485 537 446 572L354 654L74 562C100 531 128 487 138 448C189 510 290 562 371 562C403 562 446 551 446 511C446 467 392 447 358 433C292 406 229 371 159 356C167 335 170 313 170 291C170 273 168 256 166 238C211 268 266 276 319 276C385 276 435 251 435 178C435 147 414 128 389 115C313 140 202 169 122 169C59 169-22 141-22 66C-22 4 40-25 94-25C162-25 239 7 300 35C360 10 418-20 474-53ZM262 47C215 22 154-3 100-3C69-3 16 6 16 46C16 82 54 91 83 91C142 91 208 69 262 47Z"  horiz-adv-x="581" vert-adv-y="1000"  />

      
      <glyph glyph-name="uni0418" unicode="&#x0418;" d="M731 75L718 91L688 63C671 80 669 105 669 128L669 521C669 558 688 593 710 621L702 628L653 587L562 648L462 531L479 518L512 557L554 528L554 141C511 111 461 87 408 84L408 648L385 648C364 629 338 624 311 624C256 624 205 648 150 648C51 648 12 559 12 472L12 469L23 470C48 536 84 567 156 567C176 567 196 563 216 563C247 563 277 570 306 579C173 512 59 400 59 242C59 96 164-16 312-16C412-16 489 39 555 108C560 58 584 17 622-16L640-16ZM385 84C384 84 379 82 378 82C327 82 276 92 236 126C311 178 348 222 348 317L348 520C348 556 359 589 385 615ZM337 575C286 528 255 473 255 403L255 244C255 207 249 168 221 141C182 185 165 240 165 298C165 420 229 519 337 575Z"  horiz-adv-x="759" vert-adv-y="1000"  />

      
      <glyph glyph-name="uni0419" unicode="&#x0419;" d="M575 710C526 722 498 736 475 782C450 736 421 722 371 710C417 691 447 672 475 629C499 672 530 692 575 710ZM731 75L718 91L688 63C671 80 669 105 669 128L669 521C669 558 688 593 710 621L702 628L653 587L562 648L462 531L479 518L512 557L554 528L554 141C511 111 461 87 408 84L408 648L385 648C364 629 338 624 311 624C256 624 205 648 150 648C51 648 12 559 12 472L12 469L23 470C48 536 84 567 156 567C176 567 196 563 216 563C247 563 277 570 306 579C173 512 59 400 59 242C59 96 164-16 312-16C412-16 489 39 555 108C560 58 584 17 622-16L640-16ZM385 84C384 84 379 82 378 82C327 82 276 92 236 126C311 178 348 222 348 317L348 520C348 556 359 589 385 615ZM337 575C286 528 255 473 255 403L255 244C255 207 249 168 221 141C182 185 165 240 165 298C165 420 229 519 337 575Z"  horiz-adv-x="759" vert-adv-y="1000"  />

      
      <glyph glyph-name="uni041A" unicode="&#x041A;" d="M673 95L658 109L633 84C581 163 530 278 440 320C493 364 544 409 602 446L497 563C448 514 396 466 338 428C338 511 357 580 398 652L377 652C338 588 317 514 317 439L317 260C317 191 286 130 225 96C194 79 160 67 129 50L122 56C160 90 202 121 237 159C264 188 272 226 272 265L272 463C272 526 293 587 325 641L324 652C298 642 270 632 242 632C204 632 169 648 131 648C52 648 12 588 6 515L12 513C35 552 62 566 107 566C125 566 144 561 162 561C206 561 246 582 281 606C210 556 171 491 170 404C154 414 135 420 116 420C74 420 45 395 35 355C52 360 72 367 90 367C152 367 177 309 177 255L177 247C160 256 140 265 120 265C83 265 61 242 56 206C67 211 83 219 95 219C126 219 141 188 141 161C141 103 71 40 33 1L44-19C93-1 166 25 218 25C272 25 338 2 388-18L493 102C516 60 541 18 574-16ZM492 391L350 275L338 275L338 403C368 423 397 445 426 467ZM480 127L437 79C393 101 345 111 296 111C288 111 279 111 271 110C314 145 334 190 338 244C342 244 345 245 349 245C412 245 453 175 480 127Z"  horiz-adv-x="681" vert-adv-y="1000"  />

      
      <glyph glyph-name="uni041B" unicode="&#x041B;" d="M657-54C643-13 609 26 563 26C543 26 523 18 503 18C465 18 454 42 454 76C454 137 511 164 565 164C577 164 589 164 601 162C585 190 559 202 528 202C513 202 499 200 485 196C499 251 536 284 594 284C604 284 614 283 624 281C610 308 587 320 557 320C531 320 507 310 484 299C497 374 551 404 623 404C606 427 583 437 555 437C531 437 506 429 484 420L484 501L244 648C137 614 26 546 26 420C26 296 90 184 168 91C145 98 121 103 97 103C68 103 38 98 10 91L-7 115L-27 103L41-16C71-8 102 1 133 1C187 1 227-25 254-71L264-63C246 73 129 234 129 360C129 477 224 538 331 547L331 131C331 37 389-74 495-74C541-74 567-42 590-42C613-42 635-49 655-59ZM463 9C458 8 453 8 448 8C371 8 355 89 355 150L355 545L392 525L392 172C392 111 400 37 463 9Z"  horiz-adv-x="678" vert-adv-y="1000"  />

      
      <glyph glyph-name="uni041C" unicode="&#x041C;" d="M841 74L825 89C820 84 811 73 803 73C784 73 781 113 781 126L781 511C781 545 800 572 821 597L807 608L768 579L665 649L501 542C498 594 466 628 423 652L246 554C155 504 130 430 126 331C67 326 28 300 18 239C37 245 58 250 78 250C142 250 183 183 183 125C183-21-30 100-30-87L-21-87C-6-56 18-44 51-44C87-44 120-58 156-58C245-58 290 26 290 106L290 300L397 300L397 189C397 172 383 159 371 149L371 141C408 113 443 82 472 46L625 182L610 198L588 179L588 300L641 374L588 374L588 569L606 579L675 527L675 109C675 53 694 6 750-15ZM565 374L501 374L501 510L565 552ZM397 374L327 374L290 320L290 472C290 513 308 548 337 575C362 574 397 565 397 534ZM565 161L534 135C506 145 501 155 501 184L501 300L565 300ZM285 546C274 525 267 503 267 479L267 112C267 71 251 36 205 36C193 36 182 39 171 42C218 65 228 115 228 163L228 427C228 478 240 517 285 546Z"  horiz-adv-x="866" vert-adv-y="1000"  />

      
      <glyph glyph-name="uni041D" unicode="&#x041D;" d="M723 75L708 93L673 64C657 81 655 105 655 127L655 513C655 550 676 585 700 612L691 620L628 580L556 649L458 547L478 532L507 561L539 528L539 411C521 400 500 393 479 393C452 393 427 404 402 411L402 512C402 578 405 623 468 659L466 661C322 631 304 581 304 442L304 268C304 170 261 110 177 63C241 135 254 195 254 289L254 443C254 541 254 605 353 653L351 657C319 648 284 636 250 636C201 636 158 663 109 663C43 663-6 607-17 545L-14 544C0 567 19 588 48 588C83 588 113 563 148 563C169 563 189 568 208 575C144 522 145 466 143 390C87 389 30 360 21 300C42 311 66 320 90 320C131 320 161 293 161 251C161 246 161 242 160 237C119 227 77 208 77 159C77 150 78 141 81 132C95 150 113 168 137 168C154 168 162 152 162 137C162 64 41 7 41-78C41-95 51-114 70-114C85-114 93-101 93-87C93-70 83-54 83-37C83 17 176 29 216 29C283 29 355 15 413-20L504 121L490 135C472 113 447 99 418 99C382 99 347 108 311 108C298 108 285 108 272 106C358 130 402 169 404 262C425 269 453 275 476 275C497 275 519 270 539 264L539 125C539 65 570 11 624-16ZM539 284C520 290 500 294 480 294C454 294 427 290 402 283L402 389C427 383 453 374 479 374C504 374 517 380 539 388Z"  horiz-adv-x="722" vert-adv-y="1000"  />

      
      <glyph glyph-name="uni041E" unicode="&#x041E;" d="M678 372C678 540 519 633 369 650C267 577 164 506 57 442C36 386 21 326 21 266C21 119 117-16 273-16C441-16 678 201 678 372ZM543 439C519 408 486 394 447 394C409 394 374 412 346 437L346 549C423 538 502 510 543 439ZM581 326C581 302 576 278 566 256C534 288 496 306 450 306C412 306 377 290 346 268L346 406C376 388 409 374 444 374C485 374 524 389 554 418C573 391 581 359 581 326ZM555 229C515 147 440 78 346 72L346 237C373 262 408 286 446 286C492 286 529 267 555 229ZM321 72C268 74 221 104 183 140C232 186 283 234 283 307L283 550L321 550ZM194 248C194 216 188 185 167 160C131 204 113 261 113 317C113 389 139 455 194 503Z"  horiz-adv-x="700" vert-adv-y="1000"  />

      
      <glyph glyph-name="uni041F" unicode="&#x041F;" d="M665 160L665 163L654 162C634 110 592 65 533 65C490 65 449 66 407 53C539 119 658 233 658 390C658 536 553 648 405 648C307 648 256 589 194 524C189 574 165 615 127 648L109 648L18 557L31 541L61 569C78 552 80 527 80 504L80 111C80 74 61 39 39 11L47 4L96 45L187-16L287 101L270 114L237 75L195 104L195 494C234 522 258 545 309 548L309-16L332-16C353 3 379 8 406 8C452 8 494-16 539-16C629-16 665 85 665 160ZM552 334C552 212 488 113 380 57C431 104 462 159 462 229L462 388C462 425 468 464 496 491C535 447 552 392 552 334ZM481 506C406 454 369 410 369 315L369 112C369 76 358 43 332 17L332 550C386 550 438 543 481 506Z"  horiz-adv-x="686" vert-adv-y="1000"  />

      
      <glyph glyph-name="uni0420" unicode="&#x0420;" d="M634 106L634 381C634 526 575 571 461 649L355 575L355 648L332 648L332 558L286 530C282 600 234 648 163 648C117 648 73 625 39 595L39 581C62 587 85 592 109 592C155 592 184 563 184 517L184 453L22 341L22 337C104 294 172 229 182 133C112 111 42 74 2 10L9-2C60 20 115 39 171 39L184 39L184-139C241-137 298-137 355-139L355 27C400 23 447 2 488-16ZM523 401C503 378 471 369 441 369C411 369 375 378 355 402L355 549L372 558C460 555 517 485 523 401ZM523 248C498 262 469 273 440 273C410 273 380 265 355 248L355 371C380 354 410 348 440 348C469 348 498 356 523 372ZM523 90C470 115 413 130 355 141L355 227C379 244 408 252 437 252C469 252 499 241 523 220ZM332-111L290-111L290 507L332 535ZM184 317L110 378L184 428Z"  horiz-adv-x="681" vert-adv-y="1000"  />

      
      <glyph glyph-name="uni0421" unicode="&#x0421;" d="M586 162L579 166C524 115 461 76 383 76C369 76 355 77 341 79L341 545C387 530 433 514 477 494L566 591C496 591 429 613 369 648L174 484L174 238C174 217 174 196 162 178C120 228 106 292 106 355C106 453 148 523 225 582L223 586C93 539 20 416 20 281C20 110 141-16 313-16C446-16 529 44 586 162ZM318 83C265 94 215 121 178 162C238 211 277 259 277 341L277 527L318 561Z"  horiz-adv-x="590" vert-adv-y="1000"  />

      
      <glyph glyph-name="uni0422" unicode="&#x0422;" d="M628 651L620 653C602 620 581 601 542 601C443 601 349 648 249 648C124 648 30 591 11 461L20 461C57 519 103 553 174 553C204 553 234 547 264 542L264 390C200 390 134 365 123 294C143 304 169 320 192 320C232 320 269 294 269 251C269 247 269 244 268 240C227 231 179 208 179 159C179 148 180 137 183 126C212 165 224 166 270 171C270 137 261 97 235 73C192 57 145 24 145-27L145-33L156-33C174-1 203 6 237 6C290 6 339-19 392-19C434-19 543-8 549 46C533 39 516 33 499 33C476 33 455 45 434 52L434 512C538 502 620 536 628 651ZM411 60C374 75 363 86 321 86C304 86 286 83 269 80C341 117 364 202 364 277L364 526L411 513Z"  horiz-adv-x="633" vert-adv-y="1000"  />

      
      <glyph glyph-name="uni0423" unicode="&#x0423;" d="M710 621L702 628L653 587L562 648L462 531L479 518L512 557L554 528L554 409C533 396 508 389 483 389C457 389 431 397 408 409L408 648L385 648C364 629 338 624 311 624C256 624 205 648 150 648C51 648 12 559 12 472L12 469L23 470C48 536 84 567 156 567C176 567 196 563 216 563C247 563 277 570 306 579C175 514 76 432 76 274C76 155 188 36 308 36C408 36 488 83 555 154C555 132 556 110 552 88C538 7 461-63 378-63C315-63 289 4 215 4C137 4 106-63 106-132L106-140L114-140C121-113 135-91 165-91C201-91 239-122 284-122C324-122 412-88 454-75C565-40 669 27 669 156L669 521C669 558 688 593 710 621ZM554 284C531 296 507 303 481 303C455 303 431 296 408 284L408 387C431 375 455 368 481 368C506 368 532 375 554 387ZM554 184C511 154 461 133 408 130L408 262C432 275 459 282 486 282C510 282 533 274 554 262ZM385 128C331 128 278 135 236 172C317 229 349 295 349 393C349 428 346 463 346 498C346 541 353 583 385 615ZM337 575C286 528 255 473 255 403C255 344 266 232 221 187C193 211 168 267 168 304C168 426 229 519 337 575Z"  horiz-adv-x="759" vert-adv-y="1000"  />

      
      <glyph glyph-name="uni0424" unicode="&#x0424;" d="M762 106L762 381C762 526 703 571 589 649L483 575L483 648L460 648L460 558L414 530C410 595 386 648 312 648L312 575L206 649C92 571 33 526 33 381L33 106L179-16C220 2 267 23 312 27L312-139C369-137 426-137 483-139L483 27C528 23 575 2 616-16ZM651 401C631 378 599 369 569 369C539 369 503 378 483 402L483 549L500 558C588 555 645 485 651 401ZM651 248C626 262 597 273 568 273C538 273 508 265 483 248L483 371C508 354 538 348 568 348C597 348 626 356 651 372ZM651 90C598 115 541 130 483 141L483 227C507 244 536 252 565 252C597 252 627 241 651 220ZM312 402C292 378 256 369 226 369C196 369 164 378 144 401C150 485 207 555 295 558L312 549ZM460-111L418-111L418 507L460 535ZM312 248C287 265 257 273 227 273C198 273 169 262 144 248L144 372C169 356 198 348 227 348C257 348 287 354 312 371ZM312 141C254 130 197 115 144 90L144 220C168 241 198 252 230 252C259 252 288 244 312 227Z"  horiz-adv-x="808" vert-adv-y="1000"  />

      
      <glyph glyph-name="uni0425" unicode="&#x0425;" d="M554 576C509 597 467 624 425 650L316 407L239 563C215 611 192 648 132 648C67 648 26 609 0 553L6 547C24 560 49 574 71 574C104 574 133 547 147 519L220 374L112 374L81 300L250 300L250 283L172 109L54 157L13 61C62 44 107 18 146-16L271 266L356 88C376 47 400-3 448-16L541 77L525 95L494 66C478 77 464 91 456 109L364 300L476 300L508 374L334 374L334 384L403 535L514 488Z"  horiz-adv-x="588" vert-adv-y="1000"  />

      
      <glyph glyph-name="uni0426" unicode="&#x0426;" d="M821-19L721 92L688 63C671 80 669 105 669 128L669 521C669 558 688 593 710 621L702 628L653 587L562 648L462 531L479 518L512 557L554 528L554 409C533 396 508 389 483 389C457 389 431 397 408 409L408 648L385 648C364 629 338 624 311 624C256 624 205 648 150 648C51 648 12 559 12 472L12 469L23 470C48 535 84 567 156 567C176 567 196 563 216 563C247 563 277 570 306 579C173 512 59 400 59 242C59 96 164-16 312-16C412-16 489 39 555 108C560 58 584 18 622-14L638-16L721 55C734 45 742 18 742 2C742-30 704-53 676-58C698-70 723-96 733-119C789-104 811-75 821-19ZM554 284C531 296 507 303 481 303C455 303 431 296 408 284L408 387C431 375 455 368 481 368C506 368 532 375 554 387ZM554 138C511 108 461 87 408 84L408 262C432 275 459 282 486 282C510 282 533 274 554 262ZM385 82C331 82 278 89 236 126C311 178 348 222 348 317L348 520C348 556 359 589 385 615ZM337 575C286 528 255 473 255 403L255 244C255 207 249 168 221 141C182 185 165 240 165 298C165 420 229 519 337 575Z"  horiz-adv-x="786" vert-adv-y="1000"  />

      
      <glyph glyph-name="uni0427" unicode="&#x0427;" d="M702 75L689 91L659 63C642 80 640 105 640 128L640 521C640 562 656 590 681 621L673 628L624 587L533 648L433 531L450 518L483 557L525 528L525 454C507 442 496 434 474 434C451 434 438 443 419 454L419 648L396 648C375 629 349 624 322 624C267 624 216 648 161 648C62 648 23 559 23 472L23 469L34 470C59 535 95 567 167 567C187 567 207 563 227 563C258 563 288 570 317 579C205 527 96 461 96 322C96 204 206 102 322 102C410 102 469 154 526 214C526 117 510 54 593-16L611-16ZM525 329C506 340 495 348 472 348C449 348 438 340 419 329L419 432C438 421 449 413 472 413C495 413 506 421 525 432ZM525 244C487 216 470 193 419 190L419 307C441 318 451 327 477 327C498 327 508 317 525 307ZM396 188C342 188 290 195 247 232C321 283 360 339 360 430C360 456 357 483 357 510C357 551 366 585 396 615ZM348 575C286 517 265 463 265 380C265 332 270 284 232 247C204 271 191 313 191 349C191 451 261 530 348 575Z"  horiz-adv-x="730" vert-adv-y="1000"  />

      
      <glyph glyph-name="uni0428" unicode="&#x0428;" d="M1067 75L1052 93L1017 64C1001 81 999 105 999 127L999 513C999 550 1020 585 1044 612L1035 620L972 580L900 649L802 547L822 532L851 561L883 528L883 402C865 395 845 389 825 389C805 389 786 395 768 402L768 649L742 649C732 623 707 615 682 615C634 615 593 650 544 650C462 650 429 575 418 505L432 500C450 550 492 569 542 569C561 569 581 565 600 565C620 565 640 568 660 573C528 502 442 392 442 238C442 203 448 169 460 136C443 114 422 94 398 80L398 649L373 649C353 621 325 611 292 611C238 611 192 648 139 648C45 648 12 560 10 480L25 477C46 535 76 564 140 564C160 564 179 559 199 559C225 559 250 565 274 574C140 505 52 387 52 233C52 105 132-16 270-16C361-16 423 41 471 113C507 34 573-16 661-16C752-16 827 44 886 107C890 51 917 9 968-16ZM883 278C864 284 845 289 825 289C805 289 786 284 768 278L768 379C785 372 804 368 823 368C843 368 864 373 883 379ZM745 75C687 75 640 84 595 124C677 168 706 222 706 314L706 519C706 554 712 587 745 606ZM883 137C848 112 810 90 768 80L768 255C787 262 807 267 828 267C847 267 865 261 883 255ZM686 567C630 509 615 441 615 363C615 328 618 293 618 258C618 216 613 171 581 140C547 184 534 240 534 295C534 408 584 512 686 567ZM373 75C365 74 357 74 349 74C299 74 251 88 214 123C295 169 324 222 324 314L324 512C324 554 335 584 373 606ZM304 567C259 519 229 462 229 396L229 243C229 207 225 166 198 140C158 183 142 236 142 293C142 409 192 520 304 567Z"  horiz-adv-x="1074" vert-adv-y="1000"  />

      
      <glyph glyph-name="uni0429" unicode="&#x0429;" d="M1155-19L1055 92L1017 64C1001 81 999 105 999 127L999 513C999 550 1020 585 1044 612L1035 620L972 580L900 649L802 547L822 532L851 561L883 528L883 402C865 395 845 389 825 389C805 389 786 395 768 402L768 649L742 649C732 623 707 615 682 615C634 615 593 650 544 650C462 650 429 575 418 505L432 500C450 550 492 569 542 569C561 569 581 565 600 565C620 565 640 568 660 573C528 502 442 392 442 238C442 203 448 169 460 136C443 114 422 94 398 80L398 649L373 649C353 621 325 611 292 611C238 611 192 648 139 648C45 648 12 560 10 480L25 477C46 535 76 564 140 564C160 564 179 559 199 559C225 559 250 565 274 574C140 505 52 387 52 233C52 105 132-16 270-16C361-16 423 41 471 113C507 34 573-16 661-16C752-16 827 44 886 107C890 48 918 8 972-16L1055 55C1068 45 1076 18 1076 2C1076-30 1038-53 1010-58C1032-70 1057-96 1067-119C1123-104 1145-75 1155-19ZM883 278C864 284 845 289 825 289C805 289 786 284 768 278L768 379C785 372 804 368 823 368C843 368 864 373 883 379ZM745 75C687 75 640 84 595 124C677 168 706 222 706 314L706 519C706 554 712 587 745 606ZM883 137C848 112 810 90 768 80L768 255C787 262 807 267 828 267C847 267 865 261 883 255ZM686 567C630 509 615 441 615 363C615 328 618 293 618 258C618 216 613 171 581 140C547 184 534 240 534 295C534 408 584 512 686 567ZM373 75C365 74 357 74 349 74C299 74 251 88 214 123C295 169 324 222 324 314L324 512C324 554 335 584 373 606ZM304 567C259 519 229 462 229 396L229 243C229 207 225 166 198 140C158 183 142 236 142 293C142 409 192 520 304 567Z"  horiz-adv-x="1116" vert-adv-y="1000"  />

      
      <glyph glyph-name="uni042A" unicode="&#x042A;" d="M783 297C783 404 757 482 666 545L505 413L505 515C505 595 557 636 622 671L620 673C447 639 406 570 406 402C406 254 429 159 280 75C341 143 358 219 358 309C358 351 355 392 355 434C355 547 388 616 494 665L492 669C459 660 426 648 391 648C349 648 307 650 266 657C232 663 199 675 164 675C83 675 0 649 0 553C43 557 96 525 117 488C117 534 155 600 207 600C236 600 260 575 289 575C308 575 326 580 344 587C282 536 248 484 246 402C190 401 133 372 124 312C145 323 169 332 193 332C234 332 264 305 264 263C264 258 264 254 263 249C222 239 180 220 180 171C180 162 181 153 184 144C198 162 216 180 240 180C257 180 265 164 265 149C265 76 144 19 144-66C144-82 154-102 173-102C188-102 196-89 196-75C196-58 186-42 186-25C186 29 279 41 319 41C385 41 492 30 548-4C609 20 739 91 763 154C780 199 783 249 783 297ZM669 360C645 350 618 343 592 343C562 343 533 351 505 359L505 386L599 465C642 444 663 406 669 360ZM670 228C642 238 613 245 584 245C557 245 531 238 505 231L505 337C532 331 560 324 588 324C616 324 644 329 670 338ZM669 206C669 142 635 77 571 57C505 87 436 94 365 94C422 107 492 147 507 208C532 220 561 224 589 224C617 224 644 217 669 206Z"  horiz-adv-x="815" vert-adv-y="1000"  />

      
      <glyph glyph-name="uni042B" unicode="&#x042B;" d="M1086 639L1086 648C969 645 936 558 936 455C936 336 971 221 971 102C971 62 961 28 914 28C873 28 829 67 802 96C876 97 908 129 908 203C908 288 885 371 885 456C885 530 903 598 966 644L962 651C935 644 908 637 880 637C843 637 807 649 770 649C705 649 663 602 649 542L657 541C669 565 687 586 715 586C745 586 774 574 804 574C832 574 859 585 883 597C825 541 798 484 798 403C798 363 811 326 819 288C825 258 827 227 827 196C827 156 822 114 772 114C763 114 754 116 745 116C675 116 636 50 636-14L636-16L642-18C658 12 674 35 711 35C758 35 824-16 894-16C1015-16 1061 102 1061 206C1061 325 1024 440 1024 559C1024 607 1038 627 1086 639ZM670 285C670 392 644 468 553 531L402 401L402 503C402 583 454 624 519 659L517 661C344 627 303 558 303 390C303 242 326 147 177 63C362 271 123 526 386 653L384 657C354 648 314 636 283 636C234 636 191 663 142 663C76 663 27 607 16 545L19 544C33 567 52 588 81 588C116 588 146 563 181 563C202 563 222 568 241 575C179 524 145 472 143 390C87 389 30 360 21 300C42 311 66 320 90 320C131 320 161 293 161 251C161 246 161 242 160 237C119 227 77 208 77 159C77 150 78 141 81 132C95 150 113 168 137 168C154 168 162 152 162 137C162 64 41 7 41-78C41-94 51-114 70-114C85-114 93-101 93-87C93-70 83-54 83-37C83 17 176 29 216 29C281 29 379 18 435-16C496 8 626 79 650 142C667 187 670 237 670 285ZM556 348C533 339 509 331 484 331C456 331 429 339 402 347L402 374L491 451C534 430 550 393 556 348ZM557 216C531 225 504 233 476 233C451 233 426 226 402 219L402 325C428 319 454 312 480 312C506 312 532 318 557 326ZM556 194C556 130 522 65 458 45C390 76 336 82 262 82C319 95 389 135 404 196C428 208 455 212 481 212C507 212 532 204 556 194Z"  horiz-adv-x="1122" vert-adv-y="1000"  />

      
      <glyph glyph-name="uni042C" unicode="&#x042C;" d="M680 285C680 392 654 470 563 533L402 401L402 503C402 583 454 624 519 659L517 661C344 627 303 558 303 390C303 242 326 147 177 63C362 271 123 526 386 653L384 657C354 648 314 636 283 636C234 636 191 663 142 663C76 663 27 607 16 545L19 544C33 567 52 588 81 588C116 588 146 563 181 563C202 563 222 568 241 575C179 524 145 472 143 390C87 389 30 360 21 300C42 311 66 320 90 320C131 320 161 293 161 251C161 246 161 242 160 237C119 227 77 208 77 159C77 150 78 141 81 132C95 150 113 168 137 168C154 168 162 152 162 137C162 64 41 7 41-78C41-94 51-114 70-114C85-114 93-101 93-87C93-70 83-54 83-37C83 17 176 29 216 29C282 29 389 18 445-16C506 8 636 79 660 142C677 187 680 237 680 285ZM566 348C542 338 515 331 489 331C459 331 430 339 402 347L402 374L496 453C539 432 560 394 566 348ZM567 216C539 226 510 233 481 233C454 233 428 226 402 219L402 325C429 319 457 312 485 312C513 312 541 317 567 326ZM566 194C566 130 532 65 468 45C402 75 333 82 262 82C319 95 389 135 404 196C429 208 458 212 486 212C514 212 541 205 566 194Z"  horiz-adv-x="722" vert-adv-y="1000"  />

      
      <glyph glyph-name="uni042D" unicode="&#x042D;" d="M576 281C576 416 503 539 373 586L371 582C445 525 492 450 492 354C492 291 474 227 434 178C422 196 422 217 422 238L422 484L230 648C176 611 110 597 45 597C35 597 26 597 16 598L152 449L47 449C63 414 81 380 97 345L253 346L254 79C241 77 227 76 214 76C136 76 73 114 17 166L10 162C67 44 150-16 283-16C455-16 576 110 576 281ZM418 162C381 121 331 94 277 83L277 561L319 527L319 341C319 259 358 211 418 162ZM254 373L141 497L254 542Z"  horiz-adv-x="590" vert-adv-y="1000"  />

      
      <glyph glyph-name="uni042E" unicode="&#x042E;" d="M1112 372C1112 540 953 633 803 650C701 577 598 506 491 442C474 396 460 348 456 299L409 299C399 386 379 471 379 559C379 607 393 628 441 639L441 648C324 645 291 558 291 455C291 336 326 221 326 102C326 62 316 28 269 28C228 28 183 67 157 96C231 97 263 129 263 203C263 288 240 371 240 456C240 530 258 598 321 644L317 651C290 643 263 637 235 637C198 637 162 649 125 649C60 649 18 602 4 542L12 541C23 565 42 586 70 586C100 586 129 574 159 574C187 574 214 585 238 597C180 540 155 474 150 394C91 394 38 369 25 307C47 316 72 324 96 324C173 324 182 258 182 196C182 147 176 114 118 114C107 114 96 116 85 116C15 116-30 51-30-14L-30-16L-24-18C-8 13 15 35 51 35C118 35 178-16 249-16C369-16 415 101 416 204L461 204C483 80 577-16 707-16C875-16 1112 201 1112 372ZM977 439C953 408 920 394 881 394C843 394 808 412 780 437L780 549C857 538 936 510 977 439ZM1015 326C1015 302 1010 278 1000 256C968 288 930 306 884 306C846 306 811 290 780 268L780 406C810 388 843 374 878 374C919 374 958 389 988 418C1007 391 1015 359 1015 326ZM989 229C949 147 874 78 780 72L780 237C807 262 842 286 880 286C926 286 963 267 989 229ZM755 72C702 74 655 104 617 140C666 186 717 234 717 307L717 550L755 550ZM628 248C628 216 622 185 601 160C565 204 547 261 547 317C547 389 573 455 628 503ZM457 229L415 229C415 244 413 259 412 274L455 274C455 259 456 244 457 229Z"  horiz-adv-x="1134" vert-adv-y="1000"  />

      
      <glyph glyph-name="uni042F" unicode="&#x042F;" d="M705 6C659 68 597 111 523 132C533 232 598 297 686 337L686 343L526 460L526 492C525 548 535 592 601 592C624 592 648 587 670 581L670 595C635 626 591 648 544 648C472 648 430 603 424 533L251 652C202 592 158 527 112 465L248 368C87 281 115 125 48 71L26 90L12 74L110-16L123-16C215 50 197 290 352 290L354 290L354 122C323 110 293 96 265 78L244 99L229 84L332-22C386 16 439 42 507 42C574 42 640 24 701-2ZM597 380L526 325L526 432ZM419 133C405 133 391 131 377 127L377 539L419 509ZM354 317L214 420L326 575L354 555Z"  horiz-adv-x="706" vert-adv-y="1000"  />

      
      <glyph glyph-name="uni0430" unicode="&#x0430;" d="M366 68L352 83L334 70C324 75 311 88 311 100L311 363C311 385 333 422 344 441L338 447L311 426L177 475C155 446 119 434 84 434C78 434 72 434 66 435L112 306C62 258 19 196 19 124C19 67 49 27 87-11L96-11L220 101C220 51 234 15 279-11ZM220 262L134 308L95 417L220 367ZM220 131L153 68C117 102 100 147 100 196C100 229 110 262 127 290L220 239Z"  horiz-adv-x="375" vert-adv-y="1000"  />

      
      <glyph glyph-name="uni0431" unicode="&#x0431;" d="M335 66L335 370C335 408 298 450 271 475L141 367C139 445 75 485 75 523C75 539 81 541 88 554C114 539 150 530 180 530C247 530 328 594 328 660C328 681 317 700 294 700C281 700 270 689 270 676C270 658 294 649 294 630C294 603 265 595 243 595C202 595 158 607 130 638C81 615 9 535 9 478C9 443 28 410 49 383L49 150C49 119 47 91 21 70C84 56 143 28 194-12C234 25 283 50 335 66ZM244 73C209 86 175 100 141 115L141 336L213 394C227 380 244 359 244 339Z"  horiz-adv-x="385" vert-adv-y="1000"  />

      
      <glyph glyph-name="uni0432" unicode="&#x0432;" d="M341 64L341 332C341 380 316 426 277 454L145 346L145 373L314 510L189 647L99 586L86 585C69 602 46 613 23 619L20 614C38 596 54 573 54 547L54 156C54 128 50 100 26 81C93 68 154 32 206-11C244 26 291 50 341 64ZM234 477L145 404L145 575ZM250 77L145 129L145 315L218 373C232 364 250 348 250 330Z"  horiz-adv-x="391" vert-adv-y="1000"  />

      
      <glyph glyph-name="uni0433" unicode="&#x0433;" d="M363 8L246 179L338 233L338 393C294 412 254 441 221 476C184 454 140 435 96 435C74 435 45 443 45 470C45 489 69 498 69 516C69 529 58 540 45 540C22 540 11 521 11 500C11 475 26 452 40 432L125 309L37 252L37 63C82 49 122 21 157-11C184 9 217 22 251 22C284 22 316 11 345-5ZM250 279L197 248L109 375C126 372 144 369 161 369C192 369 223 378 250 393ZM278 93C257 100 236 105 214 105C180 105 148 92 120 74L120 205L174 237Z"  horiz-adv-x="370" vert-adv-y="1000"  />

      
      <glyph glyph-name="uni0434" unicode="&#x0434;" d="M412 348L412 453L340 403L198 475C157 452 95 415 50 408L50 73L139 5L36-119L59-139C95-125 133-118 172-118C212-118 251-126 289-139L375-87C392-76 406-63 406-41C406 4 339 51 339 121L339 360ZM251 137L196 74L138 116L138 400L251 363ZM345-75C299-58 251-46 202-46C174-46 146-50 119-55L249 99C253 33 300-21 345-65Z"  horiz-adv-x="421" vert-adv-y="1000"  />

      
      <glyph glyph-name="uni0435" unicode="&#x0435;" d="M305 338L180 475C139 444 97 413 49 393L49 122C49 94 45 66 21 47C69 37 116 18 156-11C200 26 245 62 292 94L278 111L216 68L141 103L141 205C194 251 249 296 305 338ZM225 306L136 233L136 402Z"  horiz-adv-x="308" vert-adv-y="1000"  />

      
      <glyph glyph-name="uni0436" unicode="&#x0436;" d="M602 69L586 86L570 73C532 119 567 217 475 286C505 315 534 345 565 374L476 475L356 353L356 543C356 579 372 610 401 632L399 637C361 634 330 615 306 585L296 585C279 602 256 613 233 619L230 614C250 594 264 572 264 543L264 353L144 475L55 374C86 345 115 315 145 286C53 217 88 119 50 73L34 86L18 69L108-11C175 31 138 159 212 224L264 175L263 88L235 57L309-12L381 57L355 91L356 175L408 224C482 159 445 31 512-11ZM484 329L356 206L356 320L427 393ZM264 206L136 329L193 393L264 320Z"  horiz-adv-x="620" vert-adv-y="1000"  />

      
      <glyph glyph-name="uni0437" unicode="&#x0437;" d="M255 157C255 232 197 264 129 266L245 386L245 392C208 394 161 450 134 474L13 386L27 368L79 405L157 328L18 183C41 188 65 196 89 196C135 196 163 171 163 124C163 38 30 16 30-69C30-106 73-140 108-140C119-140 139-133 139-119C139-110 131-105 123-105C113-105 103-110 93-110C73-110 55-89 55-70C55 8 255 8 255 157Z"  horiz-adv-x="293" vert-adv-y="1000"  />

      
      <glyph glyph-name="uni0438" unicode="&#x0438;" d="M397 67L382 82L365 69C356 74 342 87 342 98L342 382L370 411L296 475L224 411L250 379L250 128L178 70C163 79 147 96 147 115L147 382L175 411L100 475L5 394L20 378L41 394L55 379L55 113C55 65 78 17 118-11L250 98C250 49 266 14 309-12Z"  horiz-adv-x="398" vert-adv-y="1000"  />

      
      <glyph glyph-name="uni0439" unicode="&#x0439;" d="M279 521C241 529 220 541 202 576C182 540 159 530 121 521C157 506 181 492 202 458C221 491 244 507 279 521ZM397 67L382 82L365 69C356 74 342 87 342 98L342 382L370 411L296 475L224 411L250 379L250 128L178 70C163 79 147 96 147 115L147 382L175 411L100 475L5 394L20 378L41 394L55 379L55 113C55 65 78 17 118-11L250 98C250 49 266 14 309-12Z"  horiz-adv-x="398" vert-adv-y="1000"  />

      
      </font>
</defs>
</svg>
