<svg width="648" height="127" viewBox="0 0 648 127" fill="none" xmlns="http://www.w3.org/2000/svg">
<g filter="url(#filter0_d_78_19)">
<path d="M110.65 86.4167L97 100.067H94.3C88.6 95.1167 85 88.9667 84.25 81.4667C74.35 91.8167 62.8 100.067 47.8 100.067C25.6 100.067 9.85 83.2667 9.85 61.3667C9.85 37.6667 26.95 20.8667 46.9 10.8166C42.55 12.1666 38.05 13.2167 33.4 13.2167C30.4 13.2167 27.4 12.6167 24.4 12.6167C13.6 12.6167 8.2 17.2667 4.45 27.1667L2.8 27.3167V26.8667C2.8 13.8167 8.65 0.466656 23.5 0.466656C31.75 0.466656 39.4 4.06665 47.65 4.06665C51.7 4.06665 55.6 3.31666 58.75 0.466656H62.2V85.0667C70.15 84.6167 77.65 81.0167 84.1 76.5167V18.4667L77.8 14.1167L72.85 19.9667L70.3 18.0167L85.3 0.466656L98.95 9.61665L106.3 3.46665L107.5 4.51665C104.2 8.71665 101.35 13.9667 101.35 19.5167V78.4667C101.35 81.9167 101.65 85.6667 104.2 88.2167L108.7 84.0167L110.65 86.4167ZM58.75 85.0667V5.41666C54.85 9.31665 53.2 14.2666 53.2 19.6667V50.1167C53.2 64.3667 47.65 70.9667 36.4 78.7667C42.4 83.8667 50.05 85.3667 57.7 85.3667C57.85 85.3667 58.6 85.0667 58.75 85.0667ZM51.55 11.4166C35.35 19.8166 25.75 34.6667 25.75 52.9667C25.75 61.6667 28.3 69.9167 34.15 76.5167C38.35 72.4667 39.25 66.6167 39.25 61.0667V37.2167C39.25 26.7167 43.9 18.4667 51.55 11.4166ZM174.368 87.6167L161.168 99.4667C153.668 94.8167 152.318 89.1167 152.318 80.7167V61.9667H137.018L136.868 84.0167L140.768 89.1167L129.968 99.4667L118.868 89.1167L123.068 84.4667V40.8167L120.968 38.5667L117.818 40.9667L115.568 38.5667L129.818 26.4167L141.068 36.0167L136.868 40.3667L137.018 56.8667H152.318V40.8167L148.418 36.0167L159.218 26.4167L170.318 36.0167L166.118 40.3667V82.9667C166.118 84.6167 168.218 86.7167 169.568 87.3167L172.118 85.3667L174.368 87.6167ZM234.416 87.3167L220.916 99.3167C210.866 93.0167 216.266 73.8167 205.316 64.0667L197.516 71.4167V83.4167L205.466 88.0667L200.666 99.4667C194.216 94.9667 187.466 90.9167 179.816 88.9667C183.716 85.9667 183.716 82.0667 183.716 77.7167V15.9167C183.716 11.7167 181.616 8.26665 178.616 5.56665L179.066 4.81665C182.516 5.71665 185.966 7.36665 188.516 9.91665H190.016C193.616 5.41666 198.266 2.56666 203.966 2.11665L204.266 2.86665C199.916 6.16665 197.516 10.8166 197.516 16.2167V44.7167L215.516 26.4167L228.866 41.5667C224.216 45.9167 219.866 50.4167 215.366 54.7667C229.166 65.1167 223.916 79.9667 229.616 86.7167L232.016 84.7667L234.416 87.3167ZM216.716 48.3167L208.166 38.7167L197.516 49.6667V66.7667L216.716 48.3167ZM284.767 88.0667C277.267 90.1667 270.217 93.7667 264.517 99.3167C256.717 92.8667 247.567 87.4667 237.517 85.5167C241.117 82.6667 241.717 78.4667 241.717 74.2667V15.6166C241.717 11.7167 239.317 8.26665 236.617 5.56665L237.067 4.81665C240.517 5.71665 243.967 7.36665 246.517 9.91665L248.467 9.76665L261.967 0.616654L280.717 21.1666L255.367 41.7167V45.7667L275.167 29.5667C281.017 33.7667 284.767 40.6667 284.767 47.8667V88.0667ZM268.717 26.1167L255.367 11.4166V37.0667L268.717 26.1167ZM271.117 86.1167V48.1667C271.117 45.4667 268.417 43.0667 266.317 41.7167L255.367 50.4167V78.3167L271.117 86.1167ZM351.761 87.6167L338.561 99.4667C332.111 95.5667 329.711 90.3167 329.711 82.9667L309.911 99.3167C303.911 95.1167 300.461 87.9167 300.461 80.7167V40.8167L298.361 38.5667L295.211 40.9667L292.961 38.5667L307.211 26.4167L318.461 36.0167L314.261 40.3667V80.4167C314.261 83.2667 316.661 85.8167 318.911 87.1667L329.711 78.4667V40.8167L325.811 36.0167L336.611 26.4167L347.711 36.0167L343.511 40.3667V82.9667C343.511 84.6167 345.611 86.5667 346.961 87.3167L349.511 85.3667L351.761 87.6167ZM390.227 74.1167C390.227 96.4667 360.227 96.4667 360.227 108.167C360.227 111.017 362.927 114.167 365.927 114.167C367.427 114.167 368.927 113.417 370.427 113.417C371.627 113.417 372.827 114.167 372.827 115.517C372.827 117.617 369.827 118.667 368.177 118.667C362.927 118.667 356.477 113.567 356.477 108.017C356.477 95.2667 376.427 91.9667 376.427 79.0667C376.427 72.0167 372.227 68.2667 365.327 68.2667C361.727 68.2667 358.127 69.4667 354.677 70.2167L375.527 48.4667L363.827 36.9167L356.027 42.4667L353.927 39.7667L372.077 26.5667C376.127 30.1667 383.177 38.5667 388.727 38.8667V39.7667L371.327 57.7667C381.527 58.0667 390.227 62.8667 390.227 74.1167ZM455.472 87.6167L442.272 99.4667C435.822 95.5667 433.422 90.3167 433.422 82.9667L413.622 99.3167C407.622 95.1167 404.172 87.9167 404.172 80.7167V40.8167L402.072 38.5667L398.922 40.9667L396.672 38.5667L410.922 26.4167L422.172 36.0167L417.972 40.3667V80.4167C417.972 83.2667 420.372 85.8167 422.622 87.1667L433.422 78.4667V40.8167L429.522 36.0167L440.322 26.4167L451.422 36.0167L447.222 40.3667V82.9667C447.222 84.6167 449.322 86.5667 450.672 87.3167L453.222 85.3667L455.472 87.6167ZM525.438 99.0167C524.238 106.517 520.788 110.867 512.988 111.917C511.938 108.467 509.238 105.617 506.388 103.667C510.138 103.667 515.688 100.967 515.688 96.6167C515.688 94.6667 514.638 91.3667 512.988 90.1667L502.038 99.4667C495.588 95.5667 493.188 90.3167 493.188 82.9667L473.388 99.3167C467.388 95.1167 463.938 87.9167 463.938 80.7167V40.8167L461.838 38.5667L458.688 40.9667L456.438 38.5667L470.688 26.4167L481.938 36.0167L477.737 40.3667V80.4167C477.737 83.2667 479.988 85.8167 482.388 87.1667L493.188 78.4667V40.8167L489.288 36.0167L500.088 26.4167L511.188 36.0167L506.988 40.3667V82.9667C506.988 84.6167 509.088 86.5667 510.438 87.3167L512.988 85.3667L525.438 99.0167ZM579.837 87.6167L566.637 99.4667C560.187 95.5667 557.787 90.3167 557.787 82.9667L537.987 99.3167C531.987 95.1167 528.537 87.9167 528.537 80.7167V40.8167L526.437 38.5667L523.287 40.9667L521.037 38.5667L535.287 26.4167L546.537 36.0167L542.337 40.3667V80.4167C542.337 83.2667 544.737 85.8167 546.987 87.1667L557.787 78.4667V40.8167L553.887 36.0167L564.687 26.4167L575.787 36.0167L571.587 40.3667V82.9667C571.587 84.6167 573.687 86.5667 575.037 87.3167L577.587 85.3667L579.837 87.6167ZM642.003 87.6167L628.803 99.4667C621.753 95.2667 619.653 91.5167 619.653 83.4167C619.653 78.0167 619.803 72.7667 619.953 67.3667C619.653 67.3667 619.203 67.2167 618.903 67.2167C610.953 67.2167 607.053 67.9667 604.503 76.2167C603.153 80.7167 600.453 97.0667 596.403 99.0167L582.603 86.5667L584.103 85.0667L586.503 86.5667C594.303 83.8667 586.053 61.2167 605.253 57.3167L589.653 46.6667C597.903 43.0667 601.803 33.1667 601.803 24.6167L618.903 33.9167L626.853 26.4167L637.953 36.0167L633.753 40.3667V82.9667C633.753 84.6167 635.853 86.5667 637.203 87.3167L639.753 85.3667L642.003 87.6167ZM619.953 63.9167V38.7167L612.903 34.8167C611.403 40.6667 608.253 48.4667 603.453 52.3667L619.953 63.9167Z" fill="white"/>
<path d="M110.65 86.4167L112.771 88.538L114.685 86.6248L112.978 84.5249L110.65 86.4167ZM97 100.067V103.067H98.2426L99.1213 102.188L97 100.067ZM94.3 100.067L92.3329 102.332L93.1792 103.067H94.3V100.067ZM84.25 81.4667L87.2351 81.1681L86.5867 74.6836L82.0821 79.393L84.25 81.4667ZM46.9 10.8166L48.2497 13.4959L46.0108 7.95146L46.9 10.8166ZM4.45 27.1667L4.72161 30.1543L6.59068 29.9844L7.25548 28.2293L4.45 27.1667ZM2.8 27.3167H-0.2V30.6018L3.07161 30.3043L2.8 27.3167ZM58.75 0.466656V-2.53334H57.5943L56.7373 -1.75795L58.75 0.466656ZM62.2 0.466656H65.2V-2.53334H62.2V0.466656ZM62.2 85.0667H59.2V88.2413L62.3695 88.0619L62.2 85.0667ZM84.1 76.5167L85.8166 78.977L87.1 78.0816V76.5167H84.1ZM84.1 18.4667H87.1V16.8924L85.8046 15.998L84.1 18.4667ZM77.8 14.1167L79.5046 11.648L77.2666 10.1027L75.5098 12.1788L77.8 14.1167ZM72.85 19.9667L71.0277 22.3497L73.2958 24.0842L75.1402 21.9045L72.85 19.9667ZM70.3 18.0167L68.0195 16.0675L65.9614 18.4755L68.4777 20.3997L70.3 18.0167ZM85.3 0.466656L86.9704 -2.02527L84.7535 -3.51133L83.0195 -1.48251L85.3 0.466656ZM98.95 9.61665L97.2796 12.1086L99.1491 13.3618L100.875 11.9175L98.95 9.61665ZM106.3 3.46665L108.276 1.20892L106.344 -0.481493L104.375 1.16584L106.3 3.46665ZM107.5 4.51665L109.859 6.37011L111.617 4.13266L109.476 2.25891L107.5 4.51665ZM104.2 88.2167L102.079 90.338L104.128 92.3874L106.247 90.4098L104.2 88.2167ZM108.7 84.0167L111.028 82.1249L109.002 79.631L106.653 81.8235L108.7 84.0167ZM58.75 85.0667V88.0667H61.75V85.0667H58.75ZM58.75 5.41666H61.75V-1.82598L56.6287 3.29533L58.75 5.41666ZM36.4 78.7667L34.6907 76.3013L31.4835 78.5249L34.4571 81.0525L36.4 78.7667ZM51.55 11.4166L53.583 13.6227L50.1691 8.75339L51.55 11.4166ZM34.15 76.5167L31.905 78.5066L33.9802 80.8479L36.2324 78.6762L34.15 76.5167ZM108.529 84.2953L94.8787 97.9453L99.1213 102.188L112.771 88.538L108.529 84.2953ZM97 97.0667H94.3V103.067H97V97.0667ZM96.2671 97.8016C91.0564 93.2765 87.8981 87.7978 87.2351 81.1681L81.2649 81.7652C82.1019 90.1355 86.1436 96.9568 92.3329 102.332L96.2671 97.8016ZM82.0821 79.393C72.3897 89.526 61.5775 97.0667 47.8 97.0667V103.067C64.0225 103.067 76.3103 94.1073 86.4179 83.5403L82.0821 79.393ZM47.8 97.0667C27.3493 97.0667 12.85 81.7038 12.85 61.3667H6.85C6.85 84.8295 23.8507 103.067 47.8 103.067V97.0667ZM12.85 61.3667C12.85 39.3263 28.7348 23.3267 48.2497 13.4959L45.5503 8.13741C25.1652 18.4066 6.85 36.007 6.85 61.3667H12.85ZM46.0108 7.95146C41.7791 9.26473 37.6113 10.2167 33.4 10.2167V16.2167C38.4887 16.2167 43.3209 15.0686 47.7892 13.6818L46.0108 7.95146ZM33.4 10.2167C32.0748 10.2167 30.7241 10.0841 29.1985 9.93154C27.7241 9.78409 26.0748 9.61665 24.4 9.61665V15.6167C25.7252 15.6167 27.0759 15.7492 28.6015 15.9018C30.0759 16.0492 31.7252 16.2167 33.4 16.2167V10.2167ZM24.4 9.61665C18.5625 9.61665 13.8096 10.8796 9.96995 13.7877C6.17174 16.6644 3.62073 20.8868 1.64452 26.104L7.25548 28.2293C9.02927 23.5465 11.0533 20.4939 13.5926 18.5706C16.0904 16.6787 19.4375 15.6167 24.4 15.6167V9.61665ZM4.17839 24.179L2.52839 24.329L3.07161 30.3043L4.72161 30.1543L4.17839 24.179ZM5.8 27.3167V26.8667H-0.2V27.3167H5.8ZM5.8 26.8667C5.8 20.7243 7.18685 14.7647 10.076 10.4392C12.8723 6.25254 17.1372 3.46666 23.5 3.46666V-2.53334C15.0128 -2.53334 8.92769 1.35578 5.08655 7.10663C1.33815 12.7186 -0.2 19.959 -0.2 26.8667H5.8ZM23.5 3.46666C27.2346 3.46666 30.8841 4.28049 34.9125 5.1926C38.8341 6.08049 43.1346 7.06665 47.65 7.06665V1.06665C43.9154 1.06665 40.2659 0.252819 36.2375 -0.659285C32.3159 -1.54718 28.0154 -2.53334 23.5 -2.53334V3.46666ZM47.65 7.06665C52.0373 7.06665 56.82 6.25855 60.7627 2.69126L56.7373 -1.75795C54.3801 0.374758 51.3627 1.06665 47.65 1.06665V7.06665ZM58.75 3.46666H62.2V-2.53334H58.75V3.46666ZM59.2 0.466656V85.0667H65.2V0.466656H59.2ZM62.3695 88.0619C71.0942 87.568 79.1326 83.6403 85.8166 78.977L82.3835 74.0563C76.1674 78.393 69.2058 81.6653 62.0305 82.0714L62.3695 88.0619ZM87.1 76.5167V18.4667H81.1V76.5167H87.1ZM85.8046 15.998L79.5046 11.648L76.0954 16.5853L82.3954 20.9353L85.8046 15.998ZM75.5098 12.1788L70.5598 18.0288L75.1402 21.9045L80.0902 16.0545L75.5098 12.1788ZM74.6724 17.5836L72.1224 15.6336L68.4777 20.3997L71.0277 22.3497L74.6724 17.5836ZM72.5805 19.9658L87.5805 2.41582L83.0195 -1.48251L68.0195 16.0675L72.5805 19.9658ZM83.6296 2.95859L97.2796 12.1086L100.62 7.12472L86.9704 -2.02527L83.6296 2.95859ZM100.875 11.9175L108.225 5.76746L104.375 1.16584L97.0248 7.31585L100.875 11.9175ZM104.324 5.72439L105.524 6.77439L109.476 2.25891L108.276 1.20892L104.324 5.72439ZM105.141 2.66318C101.676 7.07346 98.35 12.9786 98.35 19.5167H104.35C104.35 14.9548 106.724 10.3598 109.859 6.37011L105.141 2.66318ZM98.35 19.5167V78.4667H104.35V19.5167H98.35ZM98.35 78.4667C98.35 81.8684 98.5664 86.8257 102.079 90.338L106.321 86.0953C104.734 84.5076 104.35 81.9649 104.35 78.4667H98.35ZM106.247 90.4098L110.747 86.2098L106.653 81.8235L102.153 86.0235L106.247 90.4098ZM106.372 85.9084L108.322 88.3084L112.978 84.5249L111.028 82.1249L106.372 85.9084ZM61.75 85.0667V5.41666H55.75V85.0667H61.75ZM56.6287 3.29533C52.0665 7.85753 50.2 13.6239 50.2 19.6667H56.2C56.2 14.9094 57.6335 10.7758 60.8713 7.53798L56.6287 3.29533ZM50.2 19.6667V50.1167H56.2V19.6667H50.2ZM50.2 50.1167C50.2 56.8233 48.9026 61.4412 46.4851 65.254C44.0194 69.1429 40.2223 72.466 34.6907 76.3013L38.1093 81.232C43.8278 77.2673 48.4306 73.3904 51.5524 68.4668C54.7224 63.4671 56.2 57.66 56.2 50.1167H50.2ZM34.4571 81.0525C41.2293 86.8088 49.7128 88.3667 57.7 88.3667V82.3667C50.3872 82.3667 43.5708 80.9245 38.3429 76.4808L34.4571 81.0525ZM57.7 88.3667C57.9319 88.3667 58.1172 88.3402 58.2076 88.3258C58.3129 88.309 58.4019 88.2897 58.4637 88.2753C58.5858 88.2468 58.695 88.2153 58.7683 88.1933C58.9147 88.1493 59.0744 88.0958 59.1737 88.0627C59.2994 88.0208 59.3647 87.9993 59.4058 87.987C59.4262 87.9809 59.4014 87.989 59.3497 88.0011C59.323 88.0073 59.2656 88.0201 59.1879 88.0325C59.125 88.0426 58.9632 88.0667 58.75 88.0667V82.0667C58.5181 82.0667 58.3328 82.0931 58.2424 82.1075C58.1372 82.1243 58.0481 82.1436 57.9863 82.158C57.8642 82.1865 57.7551 82.218 57.6817 82.2401C57.5353 82.284 57.3756 82.3375 57.2763 82.3706C57.1506 82.4125 57.0853 82.434 57.0442 82.4463C57.0238 82.4524 57.0486 82.4443 57.1003 82.4322C57.127 82.426 57.1844 82.4132 57.2621 82.4008C57.325 82.3907 57.4869 82.3667 57.7 82.3667V88.3667ZM50.1691 8.75339C33.0344 17.638 22.75 33.4801 22.75 52.9667H28.75C28.75 35.8532 37.6656 21.9953 52.931 14.0799L50.1691 8.75339ZM22.75 52.9667C22.75 62.262 25.4842 71.2627 31.905 78.5066L36.395 74.5267C31.1158 68.5706 28.75 61.0714 28.75 52.9667H22.75ZM36.2324 78.6762C41.3562 73.7354 42.25 66.7972 42.25 61.0667H36.25C36.25 66.4361 35.3438 71.1979 32.0676 74.3571L36.2324 78.6762ZM42.25 61.0667V37.2167H36.25V61.0667H42.25ZM42.25 37.2167C42.25 27.7559 46.384 20.2571 53.583 13.6227L49.517 9.21058C41.416 16.6762 36.25 25.6774 36.25 37.2167H42.25ZM174.368 87.6167L176.372 89.8491L178.728 87.7341L176.49 85.4953L174.368 87.6167ZM161.168 99.4667L159.588 102.016L161.499 103.201L163.172 101.699L161.168 99.4667ZM152.318 61.9667H155.318V58.9667H152.318V61.9667ZM137.018 61.9667V58.9667H134.039L134.018 61.9462L137.018 61.9667ZM136.868 84.0167L133.868 83.9962L133.861 85.0232L134.485 85.839L136.868 84.0167ZM140.768 89.1167L142.844 91.2826L144.781 89.4259L143.151 87.2943L140.768 89.1167ZM129.968 99.4667L127.922 101.661L129.997 103.595L132.044 101.633L129.968 99.4667ZM118.868 89.1167L116.642 87.1058L114.663 89.2971L116.822 91.3108L118.868 89.1167ZM123.068 84.4667L125.295 86.4775L126.068 85.6209V84.4667H123.068ZM123.068 40.8167H126.068V39.6342L125.262 38.7697L123.068 40.8167ZM120.968 38.5667L123.162 36.5197L121.309 34.5353L119.15 36.1804L120.968 38.5667ZM117.818 40.9667L115.63 43.0185L117.482 44.9944L119.636 43.3529L117.818 40.9667ZM115.568 38.5667L113.622 36.2838L111.229 38.3242L113.38 40.6185L115.568 38.5667ZM129.818 26.4167L131.766 24.1346L129.819 22.4735L127.872 24.1338L129.818 26.4167ZM141.068 36.0167L143.227 38.1004L145.442 35.8054L143.016 33.7346L141.068 36.0167ZM136.868 40.3667L134.71 38.2829L133.857 39.1662L133.868 40.3939L136.868 40.3667ZM137.018 56.8667L134.018 56.8939L134.046 59.8667H137.018V56.8667ZM152.318 56.8667V59.8667H155.318V56.8667H152.318ZM152.318 40.8167H155.318V39.7515L154.647 38.9249L152.318 40.8167ZM148.418 36.0167L146.425 33.7744L144.28 35.6811L146.09 37.9084L148.418 36.0167ZM159.218 26.4167L161.181 24.1476L159.191 22.4269L157.225 24.1744L159.218 26.4167ZM170.318 36.0167L172.477 38.1004L174.678 35.8206L172.281 33.7476L170.318 36.0167ZM166.118 40.3667L163.96 38.2829L163.118 39.1547V40.3667H166.118ZM169.568 87.3167L168.35 90.0581L169.977 90.7811L171.391 89.6997L169.568 87.3167ZM172.118 85.3667L174.24 83.2453L172.382 81.3881L170.296 82.9836L172.118 85.3667ZM172.364 85.3843L159.164 97.2343L163.172 101.699L176.372 89.8491L172.364 85.3843ZM162.749 96.9169C159.44 94.865 157.695 92.7299 156.7 90.3429C155.66 87.8501 155.318 84.8128 155.318 80.7167H149.318C149.318 85.0205 149.652 89.0332 151.162 92.653C152.716 96.3784 155.397 99.4184 159.588 102.016L162.749 96.9169ZM155.318 80.7167V61.9667H149.318V80.7167H155.318ZM152.318 58.9667H137.018V64.9667H152.318V58.9667ZM134.018 61.9462L133.868 83.9962L139.868 84.0371L140.018 61.9871L134.018 61.9462ZM134.485 85.839L138.385 90.939L143.151 87.2943L139.251 82.1943L134.485 85.839ZM138.693 86.9507L127.893 97.3007L132.044 101.633L142.844 91.2826L138.693 86.9507ZM132.014 97.2725L120.914 86.9225L116.822 91.3108L127.922 101.661L132.014 97.2725ZM121.095 91.1275L125.295 86.4775L120.842 82.4558L116.642 87.1058L121.095 91.1275ZM126.068 84.4667V40.8167H120.068V84.4667H126.068ZM125.262 38.7697L123.162 36.5197L118.775 40.6136L120.875 42.8636L125.262 38.7697ZM119.15 36.1804L116 38.5804L119.636 43.3529L122.786 40.9529L119.15 36.1804ZM120.007 38.9148L117.757 36.5148L113.38 40.6185L115.63 43.0185L120.007 38.9148ZM117.515 40.8495L131.765 28.6995L127.872 24.1338L113.622 36.2838L117.515 40.8495ZM127.871 28.6987L139.121 38.2987L143.016 33.7346L131.766 24.1346L127.871 28.6987ZM138.91 33.9329L134.71 38.2829L139.027 42.4504L143.227 38.1004L138.91 33.9329ZM133.868 40.3939L134.018 56.8939L140.018 56.8394L139.868 40.3394L133.868 40.3939ZM137.018 59.8667H152.318V53.8667H137.018V59.8667ZM155.318 56.8667V40.8167H149.318V56.8667H155.318ZM154.647 38.9249L150.747 34.1249L146.09 37.9084L149.99 42.7084L154.647 38.9249ZM150.411 38.2589L161.211 28.6589L157.225 24.1744L146.425 33.7744L150.411 38.2589ZM157.256 28.6857L168.356 38.2857L172.281 33.7476L161.181 24.1476L157.256 28.6857ZM168.16 33.9329L163.96 38.2829L168.277 42.4504L172.477 38.1004L168.16 33.9329ZM163.118 40.3667V82.9667H169.118V40.3667H163.118ZM163.118 82.9667C163.118 84.8973 164.238 86.5336 165.063 87.4921C165.955 88.529 167.159 89.5286 168.35 90.0581L170.787 84.5752C170.747 84.5574 170.58 84.4685 170.325 84.2663C170.084 84.075 169.832 83.8358 169.611 83.5787C169.386 83.3166 169.236 83.0869 169.154 82.9222C169.063 82.74 169.118 82.7658 169.118 82.9667H163.118ZM171.391 89.6997L173.941 87.7497L170.296 82.9836L167.746 84.9336L171.391 89.6997ZM169.997 87.488L172.247 89.738L176.49 85.4953L174.24 83.2453L169.997 87.488ZM234.416 87.3167L236.41 89.5589L238.716 87.5082L236.601 85.2606L234.416 87.3167ZM220.916 99.3167L219.323 101.859L221.229 103.053L222.91 101.559L220.916 99.3167ZM205.316 64.0667L207.311 61.8261L205.259 59.9987L203.259 61.8833L205.316 64.0667ZM197.516 71.4167L195.459 69.2333L194.516 70.1215V71.4167H197.516ZM197.516 83.4167H194.516V85.1374L196.002 86.0062L197.516 83.4167ZM205.466 88.0667L208.231 89.2308L209.252 86.8056L206.981 85.4771L205.466 88.0667ZM200.666 99.4667L198.95 101.927L201.992 104.049L203.431 100.631L200.666 99.4667ZM179.816 88.9667L177.987 86.5888L173.098 90.35L179.075 91.8737L179.816 88.9667ZM178.616 5.56665L176.044 4.02317L174.772 6.14287L176.61 7.79654L178.616 5.56665ZM179.066 4.81665L179.824 1.9138L177.65 1.34671L176.494 3.27317L179.066 4.81665ZM188.516 9.91665L186.395 12.038L187.274 12.9167H188.516V9.91665ZM190.016 9.91665V12.9167H191.458L192.359 11.7907L190.016 9.91665ZM203.966 2.11665L206.752 1.00249L205.932 -1.04784L203.73 -0.874042L203.966 2.11665ZM204.266 2.86665L206.08 5.25673L207.901 3.87505L207.052 1.75248L204.266 2.86665ZM197.516 44.7167H194.516V52.0448L199.655 46.8204L197.516 44.7167ZM215.516 26.4167L217.767 24.4333L215.637 22.0159L213.378 24.3129L215.516 26.4167ZM228.866 41.5667L230.916 43.7575L233.042 41.7681L231.117 39.5833L228.866 41.5667ZM215.366 54.7667L213.281 52.6097L210.751 55.0554L213.566 57.1667L215.366 54.7667ZM229.616 86.7167L227.324 88.6522L229.224 90.9013L231.508 89.045L229.616 86.7167ZM232.016 84.7667L234.201 82.7106L232.289 80.6795L230.125 82.4383L232.016 84.7667ZM216.716 48.3167L218.795 50.4798L220.878 48.4784L218.957 46.3214L216.716 48.3167ZM208.166 38.7167L210.407 36.7214L208.263 34.3145L206.016 36.625L208.166 38.7167ZM197.516 49.6667L195.366 47.575L194.516 48.4483V49.6667H197.516ZM197.516 66.7667H194.516V73.8101L199.595 68.9298L197.516 66.7667ZM232.423 85.0744L218.923 97.0744L222.91 101.559L236.41 89.5589L232.423 85.0744ZM222.51 96.7748C220.738 95.6644 219.523 93.9296 218.583 91.4568C217.619 88.9187 217.054 85.9095 216.403 82.433C215.164 75.8217 213.675 67.4927 207.311 61.8261L203.321 66.3072C207.907 70.3906 209.194 76.5366 210.505 83.5378C211.129 86.8676 211.782 90.449 212.974 93.5874C214.191 96.7913 216.069 99.8189 219.323 101.859L222.51 96.7748ZM203.259 61.8833L195.459 69.2333L199.574 73.6L207.374 66.25L203.259 61.8833ZM194.516 71.4167V83.4167H200.516V71.4167H194.516ZM196.002 86.0062L203.952 90.6562L206.981 85.4771L199.031 80.8271L196.002 86.0062ZM202.702 86.9025L197.902 98.3025L203.431 100.631L208.231 89.2308L202.702 86.9025ZM202.383 97.0063C195.852 92.4496 188.743 88.1461 180.557 86.0596L179.075 91.8737C186.19 93.6873 192.581 97.4838 198.95 101.927L202.383 97.0063ZM181.646 91.3445C186.854 87.3379 186.716 81.8971 186.716 77.7167H180.716C180.716 82.2362 180.579 84.5954 177.987 86.5888L181.646 91.3445ZM186.716 77.7167V15.9167H180.716V77.7167H186.716ZM186.716 15.9167C186.716 10.6142 184.04 6.41191 180.623 3.33677L176.61 7.79654C179.193 10.1214 180.716 12.8191 180.716 15.9167H186.716ZM181.189 7.11014L181.639 6.36014L176.494 3.27317L176.044 4.02317L181.189 7.11014ZM178.309 7.71951C181.407 8.52766 184.326 9.96918 186.395 12.038L190.638 7.79533C187.607 4.76411 183.626 2.90564 179.824 1.9138L178.309 7.71951ZM188.516 12.9167H190.016V6.91665H188.516V12.9167ZM192.359 11.7907C195.533 7.82286 199.465 5.48136 204.203 5.10735L203.73 -0.874042C197.068 -0.348047 191.699 3.01045 187.674 8.04256L192.359 11.7907ZM201.181 3.23082L201.481 3.98082L207.052 1.75248L206.752 1.00249L201.181 3.23082ZM202.453 0.476579C197.389 4.31819 194.516 9.83663 194.516 16.2167H200.516C200.516 11.7967 202.444 8.01512 206.08 5.25673L202.453 0.476579ZM194.516 16.2167V44.7167H200.516V16.2167H194.516ZM199.655 46.8204L217.655 28.5204L213.378 24.3129L195.378 42.6129L199.655 46.8204ZM213.266 28.4L226.616 43.55L231.117 39.5833L217.767 24.4333L213.266 28.4ZM226.817 39.3758C222.172 43.7212 217.656 48.3807 213.281 52.6097L217.451 56.9236C222.077 52.4526 226.261 48.1121 230.916 43.7575L226.817 39.3758ZM213.566 57.1667C219.628 61.7127 221.529 67.1761 222.583 72.6582C222.852 74.0557 223.061 75.4316 223.277 76.8279C223.488 78.2 223.708 79.606 223.99 80.9481C224.545 83.598 225.412 86.3872 227.324 88.6522L231.908 84.7811C230.971 83.6711 230.356 82.0728 229.862 79.7165C229.618 78.5554 229.421 77.3036 229.206 75.9125C228.995 74.5454 228.769 73.0526 228.475 71.5251C227.279 65.3072 224.905 58.1706 217.166 52.3667L213.566 57.1667ZM231.508 89.045L233.908 87.095L230.125 82.4383L227.725 84.3883L231.508 89.045ZM229.832 86.8228L232.232 89.3727L236.601 85.2606L234.201 82.7106L229.832 86.8228ZM218.957 46.3214L210.407 36.7214L205.926 40.7119L214.476 50.3119L218.957 46.3214ZM206.016 36.625L195.366 47.575L199.667 51.7583L210.317 40.8083L206.016 36.625ZM194.516 49.6667V66.7667H200.516V49.6667H194.516ZM199.595 68.9298L218.795 50.4798L214.638 46.1535L195.438 64.6035L199.595 68.9298ZM284.767 88.0667L285.576 90.9556L287.767 90.342V88.0667H284.767ZM264.517 99.3167L262.605 101.629L264.681 103.345L266.61 101.466L264.517 99.3167ZM237.517 85.5167L235.655 83.1645L230.535 87.2179L236.946 88.4617L237.517 85.5167ZM236.617 5.56665L234.045 4.02316L232.84 6.0317L234.496 7.68797L236.617 5.56665ZM237.067 4.81665L237.824 1.9138L235.651 1.34671L234.495 3.27317L237.067 4.81665ZM246.517 9.91665L244.396 12.038L245.372 13.0136L246.747 12.9078L246.517 9.91665ZM248.467 9.76665L248.697 12.7578L249.491 12.6967L250.15 12.25L248.467 9.76665ZM261.967 0.616654L264.183 -1.40539L262.433 -3.32342L260.284 -1.86669L261.967 0.616654ZM280.717 21.1666L282.606 23.4971L285.077 21.4942L282.933 19.1446L280.717 21.1666ZM255.367 41.7167L253.478 39.3862L252.367 40.2867V41.7167H255.367ZM255.367 45.7667H252.367V52.0974L257.267 48.0885L255.367 45.7667ZM275.167 29.5667L276.917 27.1297L275.048 25.788L273.267 27.2448L275.167 29.5667ZM268.717 26.1167L270.62 28.4362L273.059 26.4354L270.938 24.0998L268.717 26.1167ZM255.367 11.4166L257.588 9.39976L252.367 3.65096V11.4166H255.367ZM255.367 37.0667H252.367V43.4074L257.27 39.3862L255.367 37.0667ZM271.117 86.1167L269.786 88.805L274.117 90.9501V86.1167H271.117ZM266.317 41.7167L267.939 39.1931L266.133 38.0316L264.451 39.3678L266.317 41.7167ZM255.367 50.4167L253.501 48.0678L252.367 48.9686V50.4167H255.367ZM255.367 78.3167H252.367V80.1787L254.036 81.005L255.367 78.3167ZM283.958 85.1778C276.077 87.3846 268.552 91.2005 262.424 97.1672L266.61 101.466C271.882 96.3328 278.458 92.9487 285.576 90.9556L283.958 85.1778ZM266.429 97.0047C258.405 90.3697 248.804 84.6507 238.089 82.5716L236.946 88.4617C246.33 90.2826 255.029 95.3636 262.605 101.629L266.429 97.0047ZM239.379 87.8688C244.136 84.1029 244.717 78.6199 244.717 74.2667H238.717C238.717 78.3134 238.098 81.2305 235.655 83.1645L239.379 87.8688ZM244.717 74.2667V15.6166H238.717V74.2667H244.717ZM244.717 15.6166C244.717 10.4951 241.603 6.31016 238.739 3.44533L234.496 7.68797C237.031 10.2231 238.717 12.9382 238.717 15.6166H244.717ZM239.19 7.11014L239.64 6.36014L234.495 3.27317L234.045 4.02316L239.19 7.11014ZM236.31 7.71951C239.408 8.52766 242.327 9.96918 244.396 12.038L248.639 7.79533C245.607 4.76411 241.627 2.90564 237.824 1.9138L236.31 7.71951ZM246.747 12.9078L248.697 12.7578L248.237 6.77549L246.287 6.92549L246.747 12.9078ZM250.15 12.25L263.65 3.1L260.284 -1.86669L246.784 7.28331L250.15 12.25ZM259.751 2.6387L278.501 23.1887L282.933 19.1446L264.183 -1.40539L259.751 2.6387ZM278.828 18.8362L253.478 39.3862L257.256 44.0471L282.606 23.4971L278.828 18.8362ZM252.367 41.7167V45.7667H258.367V41.7167H252.367ZM257.267 48.0885L277.067 31.8885L273.267 27.2448L253.467 43.4448L257.267 48.0885ZM273.418 32.0036C278.531 35.6749 281.767 41.6911 281.767 47.8667H287.767C287.767 39.6422 283.503 31.8584 276.917 27.1297L273.418 32.0036ZM281.767 47.8667V88.0667H287.767V47.8667H281.767ZM270.938 24.0998L257.588 9.39976L253.146 13.4335L266.496 28.1335L270.938 24.0998ZM252.367 11.4166V37.0667H258.367V11.4166H252.367ZM257.27 39.3862L270.62 28.4362L266.815 23.7971L253.465 34.7471L257.27 39.3862ZM274.117 86.1167V48.1667H268.117V86.1167H274.117ZM274.117 48.1667C274.117 45.8127 272.956 43.8674 271.793 42.4958C270.604 41.0928 269.148 39.9699 267.939 39.1931L264.695 44.2402C265.587 44.8134 266.53 45.5655 267.216 46.375C267.929 47.216 268.117 47.8206 268.117 48.1667H274.117ZM264.451 39.3678L253.501 48.0678L257.233 52.7655L268.183 44.0655L264.451 39.3678ZM252.367 50.4167V78.3167H258.367V50.4167H252.367ZM254.036 81.005L269.786 88.805L272.449 83.4283L256.699 75.6283L254.036 81.005ZM351.761 87.6167L353.765 89.8491L356.121 87.7341L353.882 85.4953L351.761 87.6167ZM338.561 99.4667L337.009 102.034L338.911 103.184L340.565 101.699L338.561 99.4667ZM329.711 82.9667H332.711V76.5988L327.801 80.6534L329.711 82.9667ZM309.911 99.3167L308.191 101.774L310.061 103.084L311.821 101.63L309.911 99.3167ZM300.461 40.8167H303.461V39.6342L302.654 38.7697L300.461 40.8167ZM298.361 38.5667L300.554 36.5197L298.702 34.5353L296.543 36.1804L298.361 38.5667ZM295.211 40.9667L293.022 43.0185L294.875 44.9944L297.029 43.3529L295.211 40.9667ZM292.961 38.5667L291.014 36.2838L288.621 38.3242L290.772 40.6185L292.961 38.5667ZM307.211 26.4167L309.158 24.1346L307.212 22.4735L305.264 24.1338L307.211 26.4167ZM318.461 36.0167L320.619 38.1004L322.835 35.8054L320.408 33.7346L318.461 36.0167ZM314.261 40.3667L312.103 38.2829L311.261 39.1547V40.3667H314.261ZM318.911 87.1667L317.367 89.7391L319.163 90.8162L320.793 89.5029L318.911 87.1667ZM329.711 78.4667L331.593 80.8029L332.711 79.9023V78.4667H329.711ZM329.711 40.8167H332.711V39.7515L332.039 38.9249L329.711 40.8167ZM325.811 36.0167L323.818 33.7744L321.673 35.6811L323.483 37.9084L325.811 36.0167ZM336.611 26.4167L338.573 24.1476L336.584 22.4269L334.618 24.1744L336.611 26.4167ZM347.711 36.0167L349.869 38.1004L352.07 35.8206L349.673 33.7476L347.711 36.0167ZM343.511 40.3667L341.353 38.2829L340.511 39.1547V40.3667H343.511ZM346.961 87.3167L345.504 89.9391L347.222 90.8936L348.783 89.6997L346.961 87.3167ZM349.511 85.3667L351.632 83.2453L349.775 81.3881L347.689 82.9836L349.511 85.3667ZM349.757 85.3843L336.557 97.2343L340.565 101.699L353.765 89.8491L349.757 85.3843ZM340.113 96.8995C337.276 95.1842 335.492 93.2782 334.382 91.1321C333.259 88.9618 332.711 86.322 332.711 82.9667H326.711C326.711 86.9613 327.363 90.6215 329.053 93.8887C330.755 97.1801 333.395 99.8491 337.009 102.034L340.113 96.8995ZM327.801 80.6534L308.001 97.0034L311.821 101.63L331.621 85.2799L327.801 80.6534ZM311.631 96.859C306.493 93.2621 303.461 87.0128 303.461 80.7167H297.461C297.461 88.8205 301.329 96.9713 308.191 101.774L311.631 96.859ZM303.461 80.7167V40.8167H297.461V80.7167H303.461ZM302.654 38.7697L300.554 36.5197L296.168 40.6136L298.268 42.8636L302.654 38.7697ZM296.543 36.1804L293.393 38.5804L297.029 43.3529L300.179 40.9529L296.543 36.1804ZM297.4 38.9148L295.15 36.5148L290.772 40.6185L293.022 43.0185L297.4 38.9148ZM294.907 40.8495L309.157 28.6995L305.264 24.1338L291.014 36.2838L294.907 40.8495ZM305.264 28.6987L316.514 38.2987L320.408 33.7346L309.158 24.1346L305.264 28.6987ZM316.303 33.9329L312.103 38.2829L316.419 42.4504L320.619 38.1004L316.303 33.9329ZM311.261 40.3667V80.4167H317.261V40.3667H311.261ZM311.261 80.4167C311.261 82.6937 312.214 84.6657 313.351 86.1665C314.494 87.6742 315.96 88.8948 317.367 89.7391L320.454 84.5942C319.612 84.0885 318.752 83.3591 318.133 82.5418C317.508 81.7177 317.261 80.9896 317.261 80.4167H311.261ZM320.793 89.5029L331.593 80.8029L327.829 76.1304L317.029 84.8304L320.793 89.5029ZM332.711 78.4667V40.8167H326.711V78.4667H332.711ZM332.039 38.9249L328.139 34.1249L323.483 37.9084L327.383 42.7084L332.039 38.9249ZM327.804 38.2589L338.604 28.6589L334.618 24.1744L323.818 33.7744L327.804 38.2589ZM334.648 28.6857L345.748 38.2857L349.673 33.7476L338.573 24.1476L334.648 28.6857ZM345.553 33.9329L341.353 38.2829L345.669 42.4504L349.869 38.1004L345.553 33.9329ZM340.511 40.3667V82.9667H346.511V40.3667H340.511ZM340.511 82.9667C340.511 84.9267 341.662 86.5358 342.479 87.4622C343.387 88.4936 344.515 89.3896 345.504 89.9391L348.418 84.6942C348.057 84.4937 347.46 84.0397 346.981 83.4961C346.75 83.2344 346.606 83.0182 346.532 82.8719C346.451 82.7135 346.511 82.7571 346.511 82.9667H340.511ZM348.783 89.6997L351.333 87.7497L347.689 82.9836L345.139 84.9336L348.783 89.6997ZM347.39 87.488L349.64 89.738L353.882 85.4953L351.632 83.2453L347.39 87.488ZM354.677 70.2167L352.511 68.1406L345.709 75.2362L355.314 73.1482L354.677 70.2167ZM375.527 48.4667L377.692 50.5427L379.738 48.4086L377.634 46.3317L375.527 48.4667ZM363.827 36.9167L365.934 34.7817L364.141 33.0112L362.087 34.4723L363.827 36.9167ZM356.027 42.4667L353.659 44.3085L355.423 46.5777L357.766 44.911L356.027 42.4667ZM353.927 39.7667L352.162 37.3404L349.656 39.1628L351.559 41.6085L353.927 39.7667ZM372.077 26.5667L374.07 24.3244L372.265 22.7202L370.312 24.1404L372.077 26.5667ZM388.727 38.8667H391.727V36.0244L388.888 35.871L388.727 38.8667ZM388.727 39.7667L390.884 41.8517L391.727 40.9796V39.7667H388.727ZM371.327 57.7667L369.17 55.6816L364.448 60.5657L371.238 60.7654L371.327 57.7667ZM387.227 74.1167C387.227 83.5285 381.112 88.3462 373.746 92.5263C370.279 94.4936 366.149 96.5 363.179 98.6063C360.142 100.76 357.227 103.735 357.227 108.167H363.227C363.227 106.748 364.061 105.336 366.649 103.5C369.304 101.618 372.674 100.033 376.707 97.7445C384.342 93.4121 393.227 87.0548 393.227 74.1167H387.227ZM357.227 108.167C357.227 110.489 358.291 112.685 359.742 114.264C361.196 115.848 363.371 117.167 365.927 117.167V111.167C365.482 111.167 364.807 110.91 364.162 110.207C363.512 109.499 363.227 108.695 363.227 108.167H357.227ZM365.927 117.167C367.11 117.167 368.225 116.872 368.904 116.702C369.725 116.497 370.11 116.417 370.427 116.417V110.417C369.243 110.417 368.129 110.711 367.449 110.881C366.629 111.086 366.243 111.167 365.927 111.167V117.167ZM370.427 116.417C370.418 116.417 370.405 116.416 370.381 116.408C370.357 116.4 370.295 116.377 370.214 116.313C370.13 116.246 370.024 116.134 369.942 115.97C369.856 115.801 369.827 115.636 369.827 115.517H375.827C375.827 111.894 372.592 110.417 370.427 110.417V116.417ZM369.827 115.517C369.827 115.274 369.928 115.1 369.966 115.05C369.98 115.033 369.912 115.12 369.677 115.249C369.452 115.373 369.164 115.485 368.856 115.563C368.542 115.644 368.297 115.667 368.177 115.667V121.667C369.503 121.667 371.163 121.278 372.564 120.509C373.904 119.773 375.827 118.19 375.827 115.517H369.827ZM368.177 115.667C366.439 115.667 364.186 114.773 362.324 113.157C360.456 111.536 359.477 109.633 359.477 108.017H353.477C353.477 111.95 355.722 115.372 358.392 117.689C361.067 120.011 364.665 121.667 368.177 121.667V115.667ZM359.477 108.017C359.477 105.703 360.353 103.753 361.923 101.819C363.557 99.8059 365.785 97.9942 368.337 95.9311C373.041 92.1289 379.427 87.1941 379.427 79.0667H373.427C373.427 83.8392 369.837 87.0044 364.566 91.2647C362.131 93.2328 359.371 95.4431 357.265 98.0376C355.094 100.712 353.477 103.955 353.477 108.017H359.477ZM379.427 79.0667C379.427 74.9396 378.182 71.3694 375.531 68.849C372.905 66.3511 369.299 65.2667 365.327 65.2667V71.2667C368.254 71.2667 370.198 72.0572 371.397 73.1968C372.571 74.3139 373.427 76.1438 373.427 79.0667H379.427ZM365.327 65.2667C363.208 65.2667 361.164 65.6186 359.298 66.0311C358.363 66.2378 357.439 66.4678 356.568 66.6838C355.683 66.9032 354.853 67.1083 354.039 67.2851L355.314 73.1482C356.226 72.95 357.139 72.7239 358.012 72.5074C358.899 72.2874 359.746 72.0768 360.593 71.8897C362.289 71.5147 363.845 71.2667 365.327 71.2667V65.2667ZM356.842 72.2927L377.692 50.5427L373.361 46.3906L352.511 68.1406L356.842 72.2927ZM377.634 46.3317L365.934 34.7817L361.719 39.0516L373.419 50.6016L377.634 46.3317ZM362.087 34.4723L354.287 40.0223L357.766 44.911L365.566 39.361L362.087 34.4723ZM358.395 40.6248L356.295 37.9248L351.559 41.6085L353.659 44.3085L358.395 40.6248ZM355.691 42.1929L373.841 28.9929L370.312 24.1404L352.162 37.3404L355.691 42.1929ZM370.083 28.8089C371.022 29.6428 372.146 30.7668 373.5 32.1016C374.82 33.4024 376.31 34.8551 377.866 36.2137C379.414 37.5661 381.1 38.8905 382.831 39.9096C384.533 40.9119 386.497 41.7505 388.565 41.8623L388.888 35.871C388.181 35.8328 387.182 35.5089 385.875 34.7393C384.597 33.9865 383.227 32.9297 381.813 31.6947C380.405 30.4657 379.027 29.1247 377.712 27.8286C376.432 26.5665 375.157 25.2905 374.07 24.3244L370.083 28.8089ZM385.727 38.8667V39.7667H391.727V38.8667H385.727ZM386.57 37.6816L369.17 55.6816L373.484 59.8517L390.884 41.8517L386.57 37.6816ZM371.238 60.7654C375.95 60.9039 379.989 62.0802 382.777 64.2166C385.444 66.2605 387.227 69.3708 387.227 74.1167H393.227C393.227 67.6125 390.659 62.6978 386.426 59.4542C382.314 56.3031 376.903 54.9294 371.415 54.768L371.238 60.7654ZM455.472 87.6167L457.476 89.8491L459.832 87.7341L457.593 85.4953L455.472 87.6167ZM442.272 99.4667L440.72 102.034L442.622 103.184L444.276 101.699L442.272 99.4667ZM433.422 82.9667H436.422V76.5988L431.512 80.6534L433.422 82.9667ZM413.622 99.3167L411.901 101.774L413.772 103.084L415.532 101.63L413.622 99.3167ZM404.172 40.8167H407.172V39.6342L406.365 38.7697L404.172 40.8167ZM402.072 38.5667L404.265 36.5197L402.413 34.5353L400.254 36.1804L402.072 38.5667ZM398.922 40.9667L396.733 43.0185L398.586 44.9944L400.74 43.3529L398.922 40.9667ZM396.672 38.5667L394.725 36.2838L392.332 38.3242L394.483 40.6185L396.672 38.5667ZM410.922 26.4167L412.869 24.1346L410.923 22.4735L408.975 24.1338L410.922 26.4167ZM422.172 36.0167L424.33 38.1004L426.546 35.8054L424.119 33.7346L422.172 36.0167ZM417.972 40.3667L415.814 38.2829L414.972 39.1547V40.3667H417.972ZM422.622 87.1667L421.078 89.7391L422.874 90.8162L424.504 89.5029L422.622 87.1667ZM433.422 78.4667L435.304 80.8029L436.422 79.9023V78.4667H433.422ZM433.422 40.8167H436.422V39.7515L435.75 38.9249L433.422 40.8167ZM429.522 36.0167L427.529 33.7744L425.384 35.6811L427.194 37.9084L429.522 36.0167ZM440.322 26.4167L442.284 24.1476L440.295 22.4269L438.329 24.1744L440.322 26.4167ZM451.422 36.0167L453.58 38.1004L455.781 35.8206L453.384 33.7476L451.422 36.0167ZM447.222 40.3667L445.064 38.2829L444.222 39.1547V40.3667H447.222ZM450.672 87.3167L449.215 89.9391L450.933 90.8936L452.494 89.6997L450.672 87.3167ZM453.222 85.3667L455.343 83.2453L453.486 81.3881L451.4 82.9836L453.222 85.3667ZM453.468 85.3843L440.268 97.2343L444.276 101.699L457.476 89.8491L453.468 85.3843ZM443.824 96.8995C440.987 95.1842 439.203 93.2782 438.093 91.1321C436.97 88.9618 436.422 86.322 436.422 82.9667H430.422C430.422 86.9613 431.074 90.6215 432.763 93.8887C434.466 97.1801 437.106 99.8491 440.72 102.034L443.824 96.8995ZM431.512 80.6534L411.712 97.0034L415.532 101.63L435.332 85.2799L431.512 80.6534ZM415.342 96.859C410.204 93.2621 407.172 87.0128 407.172 80.7167H401.172C401.172 88.8205 405.04 96.9713 411.901 101.774L415.342 96.859ZM407.172 80.7167V40.8167H401.172V80.7167H407.172ZM406.365 38.7697L404.265 36.5197L399.879 40.6136L401.979 42.8636L406.365 38.7697ZM400.254 36.1804L397.104 38.5804L400.74 43.3529L403.89 40.9529L400.254 36.1804ZM401.11 38.9148L398.86 36.5148L394.483 40.6185L396.733 43.0185L401.11 38.9148ZM398.618 40.8495L412.868 28.6995L408.975 24.1338L394.725 36.2838L398.618 40.8495ZM408.975 28.6987L420.225 38.2987L424.119 33.7346L412.869 24.1346L408.975 28.6987ZM420.014 33.9329L415.814 38.2829L420.13 42.4504L424.33 38.1004L420.014 33.9329ZM414.972 40.3667V80.4167H420.972V40.3667H414.972ZM414.972 80.4167C414.972 82.6937 415.925 84.6657 417.062 86.1665C418.205 87.6742 419.671 88.8948 421.078 89.7391L424.165 84.5942C423.323 84.0885 422.463 83.3591 421.844 82.5418C421.219 81.7177 420.972 80.9896 420.972 80.4167H414.972ZM424.504 89.5029L435.304 80.8029L431.54 76.1304L420.74 84.8304L424.504 89.5029ZM436.422 78.4667V40.8167H430.422V78.4667H436.422ZM435.75 38.9249L431.85 34.1249L427.194 37.9084L431.094 42.7084L435.75 38.9249ZM431.515 38.2589L442.315 28.6589L438.329 24.1744L427.529 33.7744L431.515 38.2589ZM438.359 28.6857L449.459 38.2857L453.384 33.7476L442.284 24.1476L438.359 28.6857ZM449.264 33.9329L445.064 38.2829L449.38 42.4504L453.58 38.1004L449.264 33.9329ZM444.222 40.3667V82.9667H450.222V40.3667H444.222ZM444.222 82.9667C444.222 84.9267 445.373 86.5358 446.19 87.4622C447.098 88.4936 448.226 89.3896 449.215 89.9391L452.129 84.6942C451.768 84.4937 451.171 84.0397 450.692 83.4961C450.461 83.2344 450.317 83.0182 450.243 82.8719C450.162 82.7135 450.222 82.7571 450.222 82.9667H444.222ZM452.494 89.6997L455.044 87.7497L451.4 82.9836L448.85 84.9336L452.494 89.6997ZM451.101 87.488L453.351 89.738L457.593 85.4953L455.343 83.2453L451.101 87.488ZM525.438 99.0167L528.4 99.4906L528.628 98.0631L527.654 96.995L525.438 99.0167ZM512.988 111.917L510.117 112.79L510.86 115.23L513.388 114.89L512.988 111.917ZM506.388 103.667V100.667H496.69L504.693 106.143L506.388 103.667ZM512.988 90.1667L514.752 87.7404L512.844 86.3527L511.045 87.8801L512.988 90.1667ZM502.038 99.4667L500.485 102.034L502.333 103.151L503.98 101.753L502.038 99.4667ZM493.188 82.9667H496.188V76.5988L491.277 80.6534L493.188 82.9667ZM473.388 99.3167L471.667 101.774L473.537 103.084L475.298 101.63L473.388 99.3167ZM463.938 40.8167H466.938V39.6342L466.131 38.7697L463.938 40.8167ZM461.837 38.5667L464.031 36.5197L462.179 34.5353L460.019 36.1804L461.837 38.5667ZM458.688 40.9667L456.499 43.0185L458.351 44.9944L460.506 43.3529L458.688 40.9667ZM456.438 38.5667L454.491 36.2838L452.098 38.3242L454.249 40.6185L456.438 38.5667ZM470.688 26.4167L472.635 24.1346L470.688 22.4735L468.741 24.1338L470.688 26.4167ZM481.938 36.0167L484.096 38.1004L486.312 35.8054L483.885 33.7346L481.938 36.0167ZM477.737 40.3667L475.579 38.2829L474.737 39.1547V40.3667H477.737ZM482.388 87.1667L480.917 89.7814L482.687 90.7774L484.27 89.5029L482.388 87.1667ZM493.188 78.4667L495.069 80.8029L496.188 79.9023V78.4667H493.188ZM493.188 40.8167H496.188V39.7515L495.516 38.9249L493.188 40.8167ZM489.288 36.0167L487.294 33.7744L485.149 35.6811L486.959 37.9084L489.288 36.0167ZM500.087 26.4167L502.05 24.1476L500.06 22.4269L498.094 24.1744L500.087 26.4167ZM511.188 36.0167L513.346 38.1004L515.547 35.8206L513.15 33.7476L511.188 36.0167ZM506.987 40.3667L504.829 38.2829L503.987 39.1547V40.3667H506.987ZM510.438 87.3167L508.981 89.9391L510.699 90.8936L512.26 89.6997L510.438 87.3167ZM512.988 85.3667L515.204 83.345L513.35 81.3126L511.165 82.9836L512.988 85.3667ZM522.475 98.5427C521.926 101.973 520.92 104.291 519.482 105.852C518.084 107.369 515.985 108.486 512.587 108.943L513.388 114.89C517.79 114.297 521.316 112.715 523.893 109.919C526.43 107.167 527.749 103.561 528.4 99.4906L522.475 98.5427ZM515.858 111.043C514.537 106.704 511.249 103.358 508.082 101.191L504.693 106.143C507.226 107.875 509.338 110.229 510.117 112.79L515.858 111.043ZM506.388 106.667C508.876 106.667 511.769 105.805 514.09 104.281C516.399 102.765 518.688 100.195 518.688 96.6167H512.688C512.688 97.3881 512.201 98.3436 510.797 99.2651C509.406 100.179 507.649 100.667 506.388 100.667V106.667ZM518.688 96.6167C518.688 95.1972 518.327 93.5167 517.756 92.0335C517.213 90.6197 516.274 88.8475 514.752 87.7404L511.223 92.5929C511.351 92.6858 511.762 93.1636 512.156 94.1873C512.523 95.1416 512.688 96.0861 512.688 96.6167H518.688ZM511.045 87.8801L500.095 97.1801L503.98 101.753L514.93 92.4532L511.045 87.8801ZM503.59 96.8995C500.753 95.1842 498.968 93.2782 497.858 91.1321C496.736 88.9618 496.188 86.322 496.188 82.9667H490.188C490.188 86.9613 490.839 90.6215 492.529 93.8887C494.232 97.1801 496.872 99.8491 500.485 102.034L503.59 96.8995ZM491.277 80.6534L471.477 97.0034L475.298 101.63L495.098 85.2799L491.277 80.6534ZM475.108 96.859C469.969 93.2621 466.938 87.0128 466.938 80.7167H460.938C460.938 88.8205 464.806 96.9713 471.667 101.774L475.108 96.859ZM466.938 80.7167V40.8167H460.938V80.7167H466.938ZM466.131 38.7697L464.031 36.5197L459.644 40.6136L461.744 42.8636L466.131 38.7697ZM460.019 36.1804L456.869 38.5804L460.506 43.3529L463.656 40.9529L460.019 36.1804ZM460.876 38.9148L458.626 36.5148L454.249 40.6185L456.499 43.0185L460.876 38.9148ZM458.384 40.8495L472.634 28.6995L468.741 24.1338L454.491 36.2838L458.384 40.8495ZM468.74 28.6987L479.99 38.2987L483.885 33.7346L472.635 24.1346L468.74 28.6987ZM479.779 33.9329L475.579 38.2829L479.896 42.4504L484.096 38.1004L479.779 33.9329ZM474.737 40.3667V80.4167H480.737V40.3667H474.737ZM474.737 80.4167C474.737 84.808 478.053 88.1705 480.917 89.7814L483.858 84.5519C481.922 83.4628 480.737 81.7253 480.737 80.4167H474.737ZM484.27 89.5029L495.069 80.8029L491.306 76.1304L480.506 84.8304L484.27 89.5029ZM496.188 78.4667V40.8167H490.188V78.4667H496.188ZM495.516 38.9249L491.616 34.1249L486.959 37.9084L490.859 42.7084L495.516 38.9249ZM491.281 38.2589L502.081 28.6589L498.094 24.1744L487.294 33.7744L491.281 38.2589ZM498.125 28.6857L509.225 38.2857L513.15 33.7476L502.05 24.1476L498.125 28.6857ZM509.029 33.9329L504.829 38.2829L509.146 42.4504L513.346 38.1004L509.029 33.9329ZM503.987 40.3667V82.9667H509.987V40.3667H503.987ZM503.987 82.9667C503.987 84.9267 505.139 86.5358 505.955 87.4622C506.864 88.4936 507.991 89.3896 508.981 89.9391L511.894 84.6942C511.534 84.4937 510.936 84.0397 510.457 83.4961C510.227 83.2344 510.083 83.0182 510.008 82.8719C509.927 82.7135 509.987 82.7571 509.987 82.9667H503.987ZM512.26 89.6997L514.81 87.7497L511.165 82.9836L508.615 84.9336L512.26 89.6997ZM510.771 87.3883L523.221 101.038L527.654 96.995L515.204 83.345L510.771 87.3883ZM579.837 87.6167L581.841 89.8491L584.197 87.7341L581.958 85.4953L579.837 87.6167ZM566.637 99.4667L565.085 102.034L566.987 103.184L568.641 101.699L566.637 99.4667ZM557.787 82.9667H560.787V76.5988L555.877 80.6534L557.787 82.9667ZM537.987 99.3167L536.267 101.774L538.137 103.084L539.897 101.63L537.987 99.3167ZM528.537 40.8167H531.537V39.6342L530.73 38.7697L528.537 40.8167ZM526.437 38.5667L528.63 36.5197L526.778 34.5353L524.619 36.1804L526.437 38.5667ZM523.287 40.9667L521.099 43.0185L522.951 44.9944L525.105 43.3529L523.287 40.9667ZM521.037 38.5667L519.091 36.2838L516.698 38.3242L518.849 40.6185L521.037 38.5667ZM535.287 26.4167L537.234 24.1346L535.288 22.4735L533.341 24.1338L535.287 26.4167ZM546.537 36.0167L548.695 38.1004L550.911 35.8054L548.484 33.7346L546.537 36.0167ZM542.337 40.3667L540.179 38.2829L539.337 39.1547V40.3667H542.337ZM546.987 87.1667L545.444 89.7391L547.239 90.8162L548.869 89.5029L546.987 87.1667ZM557.787 78.4667L559.669 80.8029L560.787 79.9023V78.4667H557.787ZM557.787 40.8167H560.787V39.7515L560.115 38.9249L557.787 40.8167ZM553.887 36.0167L551.894 33.7744L549.749 35.6811L551.559 37.9084L553.887 36.0167ZM564.687 26.4167L566.65 24.1476L564.66 22.4269L562.694 24.1744L564.687 26.4167ZM575.787 36.0167L577.945 38.1004L580.147 35.8206L577.75 33.7476L575.787 36.0167ZM571.587 40.3667L569.429 38.2829L568.587 39.1547V40.3667H571.587ZM575.037 87.3167L573.58 89.9391L575.298 90.8936L576.859 89.6997L575.037 87.3167ZM577.587 85.3667L579.708 83.2453L577.851 81.3881L575.765 82.9836L577.587 85.3667ZM577.833 85.3843L564.633 97.2343L568.641 101.699L581.841 89.8491L577.833 85.3843ZM568.189 96.8995C565.353 95.1842 563.568 93.2782 562.458 91.1321C561.335 88.9618 560.787 86.322 560.787 82.9667H554.787C554.787 86.9613 555.439 90.6215 557.129 93.8887C558.831 97.1801 561.472 99.8491 565.085 102.034L568.189 96.8995ZM555.877 80.6534L536.077 97.0034L539.897 101.63L559.697 85.2799L555.877 80.6534ZM539.708 96.859C534.569 93.2621 531.537 87.0128 531.537 80.7167H525.537C525.537 88.8205 529.405 96.9713 536.267 101.774L539.708 96.859ZM531.537 80.7167V40.8167H525.537V80.7167H531.537ZM530.73 38.7697L528.63 36.5197L524.244 40.6136L526.344 42.8636L530.73 38.7697ZM524.619 36.1804L521.469 38.5804L525.105 43.3529L528.255 40.9529L524.619 36.1804ZM525.476 38.9148L523.226 36.5148L518.849 40.6185L521.099 43.0185L525.476 38.9148ZM522.984 40.8495L537.234 28.6995L533.341 24.1338L519.091 36.2838L522.984 40.8495ZM533.34 28.6987L544.59 38.2987L548.484 33.7346L537.234 24.1346L533.34 28.6987ZM544.379 33.9329L540.179 38.2829L544.495 42.4504L548.695 38.1004L544.379 33.9329ZM539.337 40.3667V80.4167H545.337V40.3667H539.337ZM539.337 80.4167C539.337 82.6937 540.29 84.6657 541.428 86.1665C542.571 87.6742 544.036 88.8948 545.444 89.7391L548.531 84.5942C547.688 84.0885 546.829 83.3591 546.209 82.5418C545.584 81.7177 545.337 80.9896 545.337 80.4167H539.337ZM548.869 89.5029L559.669 80.8029L555.905 76.1304L545.105 84.8304L548.869 89.5029ZM560.787 78.4667V40.8167H554.787V78.4667H560.787ZM560.115 38.9249L556.215 34.1249L551.559 37.9084L555.459 42.7084L560.115 38.9249ZM555.88 38.2589L566.68 28.6589L562.694 24.1744L551.894 33.7744L555.88 38.2589ZM562.725 28.6857L573.825 38.2857L577.75 33.7476L566.65 24.1476L562.725 28.6857ZM573.629 33.9329L569.429 38.2829L573.745 42.4504L577.945 38.1004L573.629 33.9329ZM568.587 40.3667V82.9667H574.587V40.3667H568.587ZM568.587 82.9667C568.587 84.9267 569.739 86.5358 570.555 87.4622C571.463 88.4936 572.591 89.3896 573.58 89.9391L576.494 84.6942C576.133 84.4937 575.536 84.0397 575.057 83.4961C574.826 83.2344 574.683 83.0182 574.608 82.8719C574.527 82.7135 574.587 82.7571 574.587 82.9667H568.587ZM576.859 89.6997L579.409 87.7497L575.765 82.9836L573.215 84.9336L576.859 89.6997ZM575.466 87.488L577.716 89.738L581.958 85.4953L579.708 83.2453L575.466 87.488ZM642.003 87.6167L644.007 89.8491L646.363 87.7341L644.124 85.4953L642.003 87.6167ZM628.803 99.4667L627.267 102.044L629.164 103.174L630.807 101.699L628.803 99.4667ZM619.953 67.3667L622.952 67.45L623.037 64.3667H619.953V67.3667ZM604.503 76.2167L601.637 75.3307L601.633 75.3427L601.629 75.3546L604.503 76.2167ZM596.403 99.0167L594.393 101.244L595.889 102.594L597.704 101.72L596.403 99.0167ZM582.603 86.5667L580.481 84.4453L578.248 86.6786L580.593 88.7941L582.603 86.5667ZM584.103 85.0667L585.693 82.5227L583.669 81.2578L581.981 82.9453L584.103 85.0667ZM586.503 86.5667L584.913 89.1106L586.129 89.8707L587.484 89.4016L586.503 86.5667ZM605.253 57.3167L605.85 60.2566L612.809 58.843L606.944 54.839L605.253 57.3167ZM589.653 46.6667L588.453 43.917L583.482 46.0862L587.961 49.1443L589.653 46.6667ZM601.803 24.6167L603.236 21.9812L598.803 19.5701V24.6167H601.803ZM618.903 33.9167L617.469 36.5521L619.38 37.591L620.961 36.0988L618.903 33.9167ZM626.853 26.4167L628.815 24.1476L626.765 22.3748L624.794 24.2345L626.853 26.4167ZM637.953 36.0167L640.111 38.1004L642.312 35.8206L639.915 33.7476L637.953 36.0167ZM633.753 40.3667L631.595 38.2829L630.753 39.1547V40.3667H633.753ZM637.203 87.3167L635.746 89.9391L637.464 90.8936L639.025 89.6997L637.203 87.3167ZM639.753 85.3667L641.874 83.2453L640.017 81.3881L637.93 82.9836L639.753 85.3667ZM619.953 63.9167L618.232 66.3744L622.953 69.6786V63.9167H619.953ZM619.953 38.7167H622.953V36.9478L621.405 36.0916L619.953 38.7167ZM612.903 34.8167L614.355 32.1916L610.96 30.3137L609.997 34.0715L612.903 34.8167ZM603.453 52.3667L601.561 50.0383L598.476 52.5449L601.732 54.8243L603.453 52.3667ZM639.999 85.3843L626.799 97.2343L630.807 101.699L644.007 89.8491L639.999 85.3843ZM630.338 96.8894C627.008 94.9056 625.228 93.2452 624.192 91.4221C623.157 89.5999 622.653 87.2415 622.653 83.4167H616.653C616.653 87.6918 617.198 91.2584 618.976 94.3862C620.752 97.5131 623.547 99.8277 627.267 102.044L630.338 96.8894ZM622.653 83.4167C622.653 78.0658 622.801 72.8587 622.952 67.45L616.954 67.2834C616.804 72.6746 616.653 77.9675 616.653 83.4167H622.653ZM619.953 64.3667C620.104 64.3667 620.196 64.3836 620.172 64.3799C620.154 64.3771 620.122 64.3712 620.016 64.3499C619.935 64.3337 619.779 64.3021 619.619 64.2768C619.464 64.2524 619.204 64.2167 618.903 64.2167V70.2167C618.751 70.2167 618.66 70.1997 618.683 70.2034C618.701 70.2062 618.733 70.2121 618.839 70.2334C618.921 70.2496 619.076 70.2812 619.236 70.3065C619.391 70.3309 619.651 70.3667 619.953 70.3667V64.3667ZM618.903 64.2167C615.016 64.2167 611.31 64.3542 608.267 65.9752C604.985 67.7241 603.023 70.8458 601.637 75.3307L607.369 77.1026C608.533 73.3375 609.796 71.9593 611.088 71.2706C612.621 70.4541 614.839 70.2167 618.903 70.2167V64.2167ZM601.629 75.3546C601.256 76.5999 600.805 78.5993 600.314 80.7295C599.807 82.9258 599.229 85.3964 598.573 87.7751C597.912 90.1727 597.2 92.3666 596.451 94.0345C596.076 94.8685 595.729 95.4864 595.426 95.9051C595.1 96.3565 594.969 96.3774 595.101 96.3137L597.704 101.72C598.849 101.168 599.688 100.252 600.29 99.4183C600.916 98.552 601.455 97.5374 601.923 96.4941C602.861 94.4074 603.669 91.8669 604.357 89.3707C605.051 86.8557 605.654 84.2731 606.16 82.0773C606.682 79.8152 607.075 78.0834 607.376 77.0787L601.629 75.3546ZM598.412 96.7892L584.612 84.3392L580.593 88.7941L594.393 101.244L598.412 96.7892ZM584.724 88.688L586.224 87.188L581.981 82.9453L580.481 84.4453L584.724 88.688ZM582.513 87.6106L584.913 89.1106L588.093 84.0227L585.693 82.5227L582.513 87.6106ZM587.484 89.4016C591.028 88.1747 592.292 84.7732 592.938 82.1145C593.285 80.6887 593.533 79.1228 593.766 77.6097C594.005 76.0554 594.232 74.5235 594.543 72.9865C595.168 69.9001 596.068 67.1408 597.714 64.9599C599.291 62.871 601.715 61.0965 605.85 60.2566L604.656 54.3767C599.19 55.4868 595.446 58.006 592.925 61.3453C590.475 64.5925 589.35 68.3957 588.662 71.7968C588.317 73.5036 588.066 75.1966 587.835 76.6975C587.598 78.2395 587.385 79.5587 587.108 80.6969C586.508 83.1664 585.877 83.6086 585.521 83.7317L587.484 89.4016ZM606.944 54.839L591.344 44.189L587.961 49.1443L603.561 59.7943L606.944 54.839ZM590.853 49.4163C600.651 45.1404 604.803 33.7675 604.803 24.6167H598.803C598.803 32.5658 595.154 40.9929 588.453 43.917L590.853 49.4163ZM600.369 27.2521L617.469 36.5521L620.336 31.2812L603.236 21.9812L600.369 27.2521ZM620.961 36.0988L628.911 28.5988L624.794 24.2345L616.844 31.7345L620.961 36.0988ZM624.89 28.6857L635.99 38.2857L639.915 33.7476L628.815 24.1476L624.89 28.6857ZM635.795 33.9329L631.595 38.2829L635.911 42.4504L640.111 38.1004L635.795 33.9329ZM630.753 40.3667V82.9667H636.753V40.3667H630.753ZM630.753 82.9667C630.753 84.9267 631.904 86.5358 632.72 87.4622C633.629 88.4936 634.757 89.3896 635.746 89.9391L638.66 84.6942C638.299 84.4937 637.702 84.0397 637.223 83.4961C636.992 83.2344 636.848 83.0182 636.773 82.8719C636.692 82.7135 636.753 82.7571 636.753 82.9667H630.753ZM639.025 89.6997L641.575 87.7497L637.93 82.9836L635.38 84.9336L639.025 89.6997ZM637.631 87.488L639.881 89.738L644.124 85.4953L641.874 83.2453L637.631 87.488ZM622.953 63.9167V38.7167H616.953V63.9167H622.953ZM621.405 36.0916L614.355 32.1916L611.451 37.4418L618.501 41.3418L621.405 36.0916ZM609.997 34.0715C609.288 36.8362 608.192 40.0437 606.729 42.9876C605.248 45.9664 603.493 48.4683 601.561 50.0383L605.344 54.695C608.212 52.365 610.432 49.0169 612.102 45.6582C613.788 42.2646 615.018 38.6471 615.809 35.5618L609.997 34.0715ZM601.732 54.8243L618.232 66.3744L621.673 61.459L605.173 49.909L601.732 54.8243Z" fill="#956600"/>
</g>
<defs>
<filter id="filter0_d_78_19" x="0.799805" y="0.466675" width="647.203" height="126.2" filterUnits="userSpaceOnUse" color-interpolation-filters="sRGB">
<feFlood flood-opacity="0" result="BackgroundImageFix"/>
<feColorMatrix in="SourceAlpha" type="matrix" values="0 0 0 0 0 0 0 0 0 0 0 0 0 0 0 0 0 0 127 0" result="hardAlpha"/>
<feOffset dx="2" dy="4"/>
<feGaussianBlur stdDeviation="2"/>
<feComposite in2="hardAlpha" operator="out"/>
<feColorMatrix type="matrix" values="0 0 0 0 0 0 0 0 0 0 0 0 0 0 0 0 0 0 1 0"/>
<feBlend mode="luminosity" in2="BackgroundImageFix" result="effect1_dropShadow_78_19"/>
<feBlend mode="normal" in="SourceGraphic" in2="effect1_dropShadow_78_19" result="shape"/>
</filter>
</defs>
</svg>
